
<svg version="1.1" id="Layer_1" xmlns="http://www.w3.org/2000/svg" xmlns:xlink="http://www.w3.org/1999/xlink" x="0px" y="0px"
 viewBox="0 400 450 134" enable-background="new 0 400 450 134" xml:space="preserve" preserveAspectRatio="xMidYMax meet">
<path id="shadow" fill="#434343" d="M445.8,494.9l0-0.1c0-0.6-0.1-1.1-0.4-1.7c-1.1-2.7-4.1-4.1-6.9-3c0,0-0.5,0.2-1.3,0.8
c-0.8,0.5-1.7,1.5-2.8,2.9c-1.9,2.9-4.8,7-8.9,11.9c-1,1.2-2.1,2.4-3.3,3.7c-1.2,1.2-2.5,2.5-3.9,3.7c-2.7,2.4-5.9,4.8-9.4,6.5
c-0.4,0.2-0.9,0.4-1.3,0.6c-0.4,0.2-0.9,0.3-1.4,0.5c-0.4,0.1-0.9,0.4-1.4,0.4c-0.4,0.1-0.8,0.2-1.2,0.3l-0.6,0.2l-0.9,0.1
c-0.6,0-1.2,0.1-1.8,0.1l-0.1,0l-0.3,0c-0.2,0-0.3,0-0.5-0.1c-0.3,0-0.7-0.1-1-0.2c-1.3-0.5-2.7-1.5-4-3.1c-0.6-0.7-1.2-1.6-1.7-2.5
c0-0.1,0.1-0.1,0.1-0.2c4.9-6.5,8.5-13.6,11.1-20.9c0.3-0.9,0.7-1.8,1-2.7c0.3-0.8,0.6-1.8,0.9-2.7c0.6-1.8,1.1-3.7,1.5-5.5
c0.9-3.7,1.6-7.5,1.9-11.5c0.1-2,0.1-4.1-0.2-6.3c-0.2-1.1-0.4-2.3-0.8-3.5c-0.4-1.2-1-2.5-2-3.8c-1-1.3-2.4-2.4-4-3.1
c-0.4-0.2-0.8-0.3-1.2-0.4c-0.4-0.1-0.8-0.2-1.2-0.3c-0.4-0.1-0.8-0.1-1.2-0.1l-0.6,0c-0.2,0,0.1,0-0.5,0l-0.2,0l-0.6,0
c-0.1,0-0.2,0-0.4,0l-0.6,0.1l-1.1,0.2l-1,0.2c-1.3,0.3-2.5,0.8-3.6,1.4c-2.2,1.3-4,3-5.3,4.7c-1.3,1.8-2.4,3.6-3.2,5.4
c-1.6,3.6-2.5,7.1-3.2,10.6c-0.7,3.5-1.1,6.8-1.4,10.1c-0.1,1.8-0.2,3.5-0.2,5.2c0,1.7,0.1,3.4,0.2,5c0.5,5.9,1.6,11.5,3.6,16.8
l-0.9,0.9l-0.5,0.5l-0.3,0.2l0,0c0,0-0.1,0.1-0.1,0.1l-0.9,0.8c-2.5,2-5.3,3.7-8,4.4l-1,0.2c-0.3,0.1-0.5,0.1-0.8,0.1
c-0.2,0-0.2,0.1-0.4,0.1l-0.7,0l-0.7,0c0,0,0,0,0,0l-0.2,0c-0.8-0.1-1.8-0.5-2.8-1.2c-1-0.7-1.9-1.8-2.8-3.1c-0.4-0.6-0.8-1.3-1.2-2
c-0.4-0.7-0.7-1.4-1.1-2.2c-0.7-1.5-1.2-3.1-1.7-4.8l-0.7-2.4l-0.3-1.4l-0.2-0.7l-0.1-0.3c0,0,0-0.1,0-0.1c0,0,0,0,0,0l0-0.2
c-0.3-1.8-0.7-3.6-0.9-5.4c-0.1-0.4-0.1-0.9-0.2-1.3c0.5-1.2,1-2.3,1.5-3.5c2.1-4.9,4-10.2,6-15.6c2-5.5,4-11.1,5.5-17.2
c1.6-6.2,2.7-12.7,3.2-19.6c0.2-3.4,0.3-7-0.1-10.6c-0.4-3.6-1-7.4-2.7-11.3c-0.4-1-1-2-1.7-3c-0.7-1-1.6-2-2.9-3
c-0.4-0.2-0.7-0.5-1.1-0.7c-0.4-0.2-0.8-0.4-1.4-0.5c-0.5-0.1-1-0.3-1.6-0.3l-0.4,0c-0.1,0-1,0-0.7,0l-0.3,0l-0.2,0l-0.5,0.1
c-0.3,0.1-0.7,0.2-1,0.3c-0.4,0.1-0.5,0.2-0.8,0.3c-0.2,0.1-0.4,0.2-0.6,0.3c-0.4,0.2-0.7,0.5-1.1,0.8c-0.3,0.3-0.6,0.5-0.8,0.8
c-1,1.1-1.7,2.1-2.2,3.1c-0.6,1-1,2-1.4,2.9c-0.8,1.9-1.3,3.8-1.8,5.6c-1.9,7.4-2.7,14.8-3.2,22.3c-0.3,3.7-0.4,7.5-0.5,11.3
c0,1.9-0.1,3.8-0.1,5.7c0,1.9,0,3.7,0,5.6c0,7.5,0.1,15.2,0.8,23c0.1,1.4,0.3,2.8,0.5,4.2c-0.9,1.7-1.8,3.3-2.8,4.8
c-0.6,0.9-1.2,1.8-1.8,2.7c-0.6,0.9-1.2,1.7-1.8,2.5c-0.6,0.8-1.2,1.5-1.8,2.2c-0.6,0.7-1.4,1.5-2.1,2.2l-0.3,0.3
c-0.1,0.1,0.1-0.1,0,0l-0.1,0.1l-0.1,0.1l-0.5,0.4c-0.3,0.3-0.7,0.6-1,0.9c-0.6,0.6-1.3,1.1-2,1.6c-0.3,0.2-0.6,0.5-1,0.7
c-0.3,0.2-0.7,0.4-1,0.6c-0.6,0.4-1.3,0.8-1.9,1.2c-0.6,0.3-1.1,0.6-1.6,0.9c3.5-7,5.4-16,5.4-24.6c0-9.5-3.2-19-8.7-26
c-4.4-5.6-12.4-12.2-25.7-13.5c0-3.5,0-6.8,0-10c0-4.5,0.1-8.7,0.2-12.4c0.1-3.7,0.1-6.9,0.2-9.5c0.1-5.3,0.1-8.3,0.1-8.3
c0,0,0-0.1,0-0.1c0-2.8-2.3-5.1-5.1-5c-2.8,0-5.1,2.3-5,5.1c0,0,0,3,0.1,8.3c0,2.6,0.1,5.9,0.2,9.5c0.1,3.7,0.2,7.8,0.2,12.4
c0,4,0,14.1,0,14.8l-0.4,34.7c0,0.9,0,2,0,3.3c0,1.5,0,3.1,0,4.6c0,3,0,6-0.1,8.8c-0.2,2.7-0.5,5.4-1.3,7.3
c-0.4,0.9-0.8,1.7-1.3,2.1c-0.5,0.5-1,0.9-1.8,1.1c-0.8,0.3-1.7,0.4-2.8,0.5l-0.3,0l-0.2,0l-1.1-0.1c-0.9,0-1-0.2-1.3-0.3
c-0.3,0-0.7-0.3-1.1-0.4c-0.1,0-0.2-0.1-0.3-0.1l-0.3-0.2c-0.2-0.1-0.4-0.2-0.6-0.3c-0.4-0.2-0.7-0.6-1.1-0.9
c-0.3-0.3-0.7-0.7-1-1.1c-2.6-3.1-4.1-8-4.4-12.2c0-0.3,0-0.5,0-0.7l0-0.4l0-0.5c0-0.6,0-1.3,0-1.9c0-1.3,0-2.5,0-3.7
c0-2.4,0-4.8,0-7.1c0-18.1-0.1-30.2-0.1-30.2c0-0.4,0-1.9,0-2.4c-0.2-2.8-2.7-4.9-5.5-4.6c0,0-0.5,0-1.4,0.1
c-0.9,0.1-2.3,0.2-4.1,0.5c-1.8,0.3-4,0.7-6.5,1.3c-2.5,0.7-5.4,1.6-8.4,3.1c-3,1.5-6.2,3.6-8.9,6.5c-2.8,2.9-5,6.6-6.5,10.6
c-0.7,2-1.3,4-1.7,6.1c-0.4,2.1-0.6,4.2-0.7,6.4c-0.1,3.3,0,6.8,0.4,10.2c-0.2,0.5-0.3,1-0.2,1.6l0,0.1c0,1,0,2.2-0.1,3.3
c-0.1,1.1-0.2,2.3-0.3,3.4c-0.3,2.3-0.7,4.5-1.3,6.5c-0.6,2-1.4,3.8-2.4,5.1c-0.5,0.6-1,1.1-1.5,1.4c-0.5,0.3-1,0.5-1.6,0.6
c-0.1,0-0.3,0-0.5,0l-0.2,0l0,0l-0.1,0l-0.9-0.1c-0.1,0-0.4,0-0.4,0c-0.1,0-0.1,0-0.2-0.1c-0.1,0-0.2-0.1-0.3-0.1l-0.4-0.2
c-0.3-0.1-0.5-0.3-0.8-0.4c-0.9-0.6-1.8-1.7-2.5-3.4c-0.7-1.7-1.1-3.8-1.4-6c-0.3-2.2-0.3-4.5-0.3-6.8c0.1-4.7,0.6-9.5,1.3-14.4
c0.7-4.8,1.5-9.7,2.4-14.6l0.2-0.9l0-0.2l0.1-0.5l0.1-0.5c0-0.1,0-0.1,0-0.3l0-0.5c0-0.3,0-0.6,0-0.9c0-0.6-0.1-1.1-0.1-1.6
c-0.3-2.1-1.2-4.1-2.4-5.7c-1.2-1.7-2.9-3-4.7-4c-0.5-0.2-0.9-0.4-1.4-0.6c-0.5-0.2-1-0.3-1.5-0.4c-0.5-0.1-2.2-0.4-2.2-0.4
c-0.7-0.1-1-0.3-1.4-0.4l-1.5-0.5l-1.7-0.6l-1.7-0.6l-3.5-1.3l-0.9-0.3c-0.3-0.1-0.6-0.2-0.8-0.3l-1.4-0.6l0,0l-0.2-0.1
c-2.8-1-6,0.4-7.1,3.2c-0.4,1.1-0.8,2.1-1.3,3.1c-0.2,0.5-0.5,1-0.7,1.5c-0.2,0.5-0.5,1-0.8,1.5c-0.5,1-1.1,1.9-1.7,2.9
c-0.6,0.9-1.3,1.8-2,2.6l-0.5,0.6l-0.5,0.6c-0.3,0.3-0.6,0.7-0.9,1c-3.9-12.4-11.5-15.6-18.1-15.6c-16.1,0-23.3,18.7-23.3,37.2
c0,4.1,0.2,8,0.7,11.5c0,0.1,0,0.2,0,0.2l0,0.2c0,0,0,0.5,0,1.5c0,1-0.1,2.5-0.3,4.3c-0.2,1.8-0.7,3.9-1.5,6c-0.2,0.5-0.5,1-0.7,1.5
c-0.3,0.4-0.5,0.9-0.9,1.3c-0.2,0.2-0.3,0.4-0.5,0.5c-0.2,0.1-0.3,0.3-0.5,0.5c-0.4,0.2-0.7,0.5-1.1,0.6c-0.1,0-0.2,0.1-0.3,0.1
c-0.1,0-0.1,0-0.2,0c-0.1,0-0.1,0-0.2,0.1l-0.1,0.1c0,0-0.2,0-0.3,0c-0.4,0-0.8,0.1-1.2,0.1l0,0l-0.2,0c-0.1,0-0.2,0-0.4,0
c-0.9-0.1-1.7-0.5-2.6-1.2c-1.8-1.5-3.4-4.8-4.4-8.5c-0.2-0.9-0.4-1.9-0.6-2.8c-0.2-1-0.3-2-0.3-2.8c0-0.4,0-1-0.1-1.6l0-0.2l0-0.1
l0,0l0-0.4l0-0.9c0-1.2,0-2.3,0-3.5c0-4.7,0.1-9.4,0.1-14.1c0.1-18.9,0.3-37.8,0.4-52c0-3.5,0-6.8,0-9.7c0-2.9-0.1-5.4-0.1-7.5
c-0.1-4.1-0.3-6.5-0.3-6.5c-0.2-2.5-2.2-4.5-4.7-4.7c-2.8-0.2-5.2,1.9-5.4,4.7c0,0-0.2,2.4-0.3,6.5c0,2.1-0.1,4.6-0.1,7.5
c0,2.9,0,6.1,0,9.7c0,6.8,0.1,14.7,0.2,23.1c-2.6-1.1-5.6-1.8-9.2-1.8c-16.6,0-24,23.5-24,46.8l0,1.9c0,6.6,0.1,14-2.8,16.9
c-0.4,0.4-1.5,1.6-5,1.6c-9.4,0-11.4-14-11.4-16.7v-45.3c0-0.1,0-0.1,0-0.2c0-0.1,0-0.1,0-0.2c0-0.1,0-0.2-0.1-0.3
c0-0.2-0.1-0.3-0.1-0.5c0-0.2-0.1-0.3-0.1-0.5c-0.1-0.2-0.1-0.3-0.2-0.5c-0.1-0.1-0.1-0.3-0.2-0.4c-0.1-0.1-0.2-0.3-0.3-0.4
c-0.1-0.1-0.2-0.2-0.3-0.3c-0.1-0.1-0.2-0.3-0.4-0.4c-0.1-0.1-0.2-0.2-0.3-0.3c-0.2-0.1-0.3-0.2-0.5-0.3c-0.1-0.1-0.2-0.1-0.4-0.2
c-0.2-0.1-0.3-0.2-0.5-0.2c-0.1,0-0.3-0.1-0.4-0.1c-0.2,0-0.4-0.1-0.5-0.1c-0.2,0-0.3,0-0.5,0c-0.1,0-0.2,0-0.3,0
c-0.1,0-0.1,0-0.2,0c-0.1,0-0.1,0-0.2,0C22.1,456.8,8.3,471.2,8.3,494c0,22.6,9.9,38.3,24.1,38.3c3.8,0,10.9-1.1,15.3-8.2
c3.4,4.5,8.4,7.9,15.4,7.9c5.1,0,9.2-1.5,12.2-4.5c1.1-1.1,2-2.4,2.7-3.8c3.5,4.8,8.8,8.3,16.9,8.3c4.5,0,8.5-1.7,11.6-4.9
c1.1-1.1,2-2.4,2.9-3.8c1,1.7,2.3,3.3,3.9,4.7c2.2,1.9,5.1,3.2,8,3.5l1.1,0.1l0.5,0l0.1,0l0.1,0c0.2,0-0.4,0,0.5,0l0.2,0
c0.5,0,0.9-0.1,1.4-0.1c0.1,0,0.2,0,0.4,0l0.6-0.1c0.4-0.1,0.8-0.2,1.2-0.3c0.4-0.1,0.8-0.2,1.1-0.3l0.9-0.4c1.3-0.5,2.4-1.3,3.4-2
c0.5-0.4,0.9-0.8,1.4-1.3c0.5-0.4,0.8-0.9,1.1-1.3c0.7-0.8,1.2-1.7,1.7-2.5c3.7,5.6,8.8,8.6,15.1,8.6c13.9,0,22.2-14.5,22.2-38.9
c0-3.5-0.2-6.7-0.4-9.5c0.6-0.4,1.2-0.7,1.7-1.1c0.6-0.5,1.2-0.9,1.8-1.4l1.6-1.5c0.6-0.5,1-1,1.5-1.6l0.8-0.8l0.7-0.8
c1-1.1,1.8-2.3,2.6-3.4c0.8-1.2,1.6-2.4,2.3-3.6c0.4-0.6,0.7-1.2,1-1.8c0.2-0.3,0.3-0.6,0.5-0.9l2.4,0.7l1.9,0.6l1.9,0.5l0.9,0.3
l1.2,0.3c0.8,0.2,1.7,0.4,2.2,0.5l0.5,0.1l0.1,0l0.1,0l0.5,0.1l0.1,0c0.1,0,0.2,0,0.3,0c0.1,0,0.2,0,0.3,0.1c0.1,0,0.2,0.1,0.3,0.1
c0.4,0.2,0.7,0.4,1,0.8c0.3,0.3,0.4,0.7,0.5,1.1c0,0.1,0,0.2,0,0.3c0,0,0,0,0,0l0,0c0,0,0,0.1,0,0.2l-0.1,0.5l0,0.1l0,0.1l-0.2,0.9
c-0.9,4.9-1.7,9.9-2.4,15c-0.7,5.1-1.2,10.3-1.3,15.6c0,2.7,0.1,5.4,0.4,8.2c0.3,2.8,0.9,5.7,2.1,8.6c0.6,1.5,1.4,3,2.5,4.4
c1,1.4,2.5,2.7,4.1,3.8c0.8,0.5,1.7,1,2.6,1.2c0.5,0.2,0.9,0.3,1.4,0.5c0.5,0.1,1,0.2,1.5,0.3l0.8,0.1c0.3,0,0.3,0,0.5,0l0.9,0.1
l0.2,0l0.4,0l0.2,0l0.7,0c0.5,0,0.9,0,1.4-0.1c1.9-0.2,3.8-1,5.4-2c1.6-1,3-2.3,4-3.7c1.3-1.7,2.3-3.5,3-5.2
c1.1,1.6,2.4,3.1,3.8,4.4c0.8,0.8,1.8,1.4,2.8,2.1c0.5,0.3,1,0.6,1.5,0.9c0.5,0.3,1,0.6,1.6,0.7c0.5,0.2,1.1,0.4,1.6,0.6
c0.5,0.2,1.2,0.3,1.8,0.4l0.9,0.2l0.5,0.1c0.1,0,0.2,0,0.3,0c0.4,0,0.8,0.1,1.2,0.1l0.3,0l0.2,0l0.4,0l0,0l0.1,0l0.8,0
c0.5,0,1,0,1.6-0.1c1.1-0.2,2.1-0.3,3.1-0.7c1-0.3,2-0.8,3-1.2c0.5-0.3,0.9-0.5,1.3-0.8c0.5-0.3,0.9-0.6,1.2-0.9
c1.4-1.1,2.5-2.5,3.4-3.8c0.5,0.8,1.1,1.7,1.8,2.5c0.6,0.7,1.2,1.4,1.9,2c0.7,0.6,1.4,1.3,2.3,1.8l1.3,0.8l0.6,0.4
c0.2,0.1,0.5,0.2,0.7,0.3c1,0.4,1.8,0.8,3,1.1c1.1,0.3,2.4,0.5,3,0.5l1.1,0.1l0.3,0l0.1,0l0.5,0l0.1,0l0.7,0
c1.9-0.1,3.9-0.3,5.9-1.1c2-0.7,4.1-2,5.7-3.7c0.8-0.9,1.5-1.8,2.1-2.7c3.2,4.4,8.1,7.5,15.2,7.5c0.1,0,0.3,0,0.4,0c0,0,0.2,0,0.4,0
c0.4,0,0.8,0,1.4,0c1.1,0,2.7-0.1,4.7-0.4c4-0.6,9.8-2.1,16.2-6c0.8-0.5,1.6-1,2.4-1.6c0.4-0.3,0.8-0.6,1.2-0.9
c0.4-0.3,0.8-0.6,1.2-1c0.8-0.7,1.6-1.3,2.3-2c0.4-0.4,0.8-0.7,1.2-1.1l0.6-0.6l0.1-0.1l0.1-0.1l0.2-0.2l0.2-0.3
c0.7-0.8,1.3-1.5,2-2.3c0.7-0.9,1.5-1.8,2.2-2.8c0.7-0.9,1.3-1.9,2-2.8c0.1,0.4,0.2,0.9,0.3,1.3c0.6,2,1.2,4,2.1,5.9
c0.4,1,0.9,2,1.4,2.9c0.6,1,1.1,1.9,1.7,2.9c1.3,1.9,2.8,3.7,4.9,5.3c2,1.6,4.6,2.9,7.6,3.2l0.5,0.1c0.2,0-0.1,0,0.6,0l0.2,0l0.7,0
l0.7,0c0.2,0,0.7,0,1-0.1c0.7-0.1,1.4-0.1,2-0.3l1.7-0.4c4.6-1.2,8.5-3.5,11.8-6.2l1.2-1c0.3,0.4,0.6,0.9,1,1.3
c2.1,2.6,5.1,5,8.7,6.3c0.9,0.3,1.8,0.5,2.8,0.7c0.5,0.1,0.9,0.1,1.4,0.2l0.7,0l0.3,0c0,0,0.4,0,0.5,0l0.1,0c0.6,0,1.3-0.1,1.9-0.1
l0.9-0.1l1.2-0.2c0.8-0.1,1.6-0.3,2.4-0.5c0.8-0.2,1.4-0.4,2.1-0.6c0.7-0.2,1.4-0.4,2-0.7c0.6-0.3,1.2-0.6,1.9-0.8
c4.9-2.3,8.7-5.2,11.9-8c1.7-1.4,3.1-2.9,4.5-4.2c1.3-1.4,2.6-2.8,3.7-4.1c4.6-5.3,7.6-9.7,10-12.5c1.1-1.5,1.7-2.8,1.9-3.7
C445.8,495.5,445.8,494.9,445.8,494.9z M41.5,506.9c0,15.2-6.9,15.2-9.1,15.2c-8,0-13.9-12.1-13.9-28.1c0-15.9,7.8-25.4,23.1-28.4
v39.5c0,0.4,0,0.9,0,1.4C41.6,506.7,41.5,506.8,41.5,506.9z M94.9,521.8c-3.8,0-12.6,0-13.7-25.4c0-0.1,0-0.2,0-0.3
c1-17.6,6.8-31.2,13.7-31.2c4.4,0,7.6,2,9.3,3.4c0,5.6,0.1,11.4,0.1,17.1c0,4.7,0.1,9.5,0.1,14.1c0,0.7,0,1.5,0,2.2
c-0.2,5-1.3,14.3-5.2,18.3C98,521.3,96.7,521.8,94.9,521.8z M153.4,466.1c5,0,7.7,4.9,9.1,10.9c0,0-0.1,0-0.1,0l-0.7,0.2l-0.7,0.1
c-0.5,0.1-1,0.2-1.5,0.2l-1.5,0.1l-0.4,0l0,0l0,0l-0.9-0.1l-0.5,0c-0.1,0-0.2,0-0.2,0l-0.1,0c-0.1,0-0.2-0.1-0.4-0.1
c-0.2,0-0.6-0.2-1-0.3c-0.4-0.1-0.8-0.3-1.1-0.5c-0.8-0.4-1.5-0.9-2.2-1.5c-0.4-0.3-0.7-0.7-1.1-1c-0.3-0.4-0.7-0.7-1-1.1
c-0.7-0.8-1.3-1.6-1.9-2.5c-0.2-0.3-0.4-0.7-0.6-1C148.3,467.5,150.6,466.1,153.4,466.1z M160.8,513.7c-3.2,8.1-7.4,8.1-8.8,8.1
c-1.4,0-5.5,0-8.7-8.1c-2-5.2-3.1-12.5-3.1-20.6c0-3.9,0.5-8.5,1.5-12.7c0.3,0.4,0.6,0.7,1,1.1c0.6,0.5,1.1,1.1,1.7,1.6
c1.2,1,2.5,2,4,2.8c0.7,0.4,1.5,0.8,2.3,1.1c0.8,0.3,1.6,0.6,2.6,0.8c0.5,0.1,1,0.2,1.5,0.3l0.4,0.1l0.2,0l0.5,0l0.9,0.1l0.2,0
l0.1,0l0.4,0l0.1,0l0.6,0l2.3-0.1c0.8-0.1,1.5-0.2,2.3-0.3l1-0.2c0.1,1.9,0.1,3.7,0.1,5.4C164,501.2,162.9,508.5,160.8,513.7z
 M200.6,459.2C200.6,459.2,200.6,459.2,200.6,459.2C200.6,459.2,200.6,459.2,200.6,459.2z M256.9,509.7c-0.2,1.5-0.5,3.2-1.2,4.9
c-0.3,0.9-0.7,1.7-1.2,2.4c-0.5,0.7-1,1.4-1.7,1.9c-0.2,0.1-0.3,0.3-0.5,0.4c-0.2,0.1-0.4,0.2-0.5,0.3c-0.4,0.2-0.8,0.4-1.3,0.5
c-0.4,0.2-1,0.2-1.5,0.3c-0.3,0-0.6,0-0.9,0l-0.4,0l-0.3,0c-0.4,0-0.8-0.1-1.2-0.1c-0.1,0-0.2,0-0.3,0l-0.2-0.1l-0.3-0.1
c-0.2-0.1-0.4,0-0.7-0.2c-0.3-0.1-0.5-0.2-0.8-0.3c-0.3-0.1-0.5-0.2-0.8-0.4c-0.3-0.2-0.5-0.2-0.8-0.4c-0.5-0.4-1-0.7-1.5-1.2
c-1.9-1.7-3.5-4.4-4.7-7.4c-1.2-3-1.9-6.5-2.3-10c-0.4-3.5-0.5-7.1-0.4-10.7c0.1-1.5,0.3-3.2,0.6-4.8c0.3-1.6,0.7-3.1,1.2-4.4
c1-2.8,2.5-5.1,4.4-7c1.8-1.9,3.9-3.3,6.1-4.4c2.2-1.1,4.4-1.8,6.4-2.4c1.8-0.5,3.4-0.8,4.8-1c0,4.9,0,14.3-0.1,26.3
c0,2.3,0,4.6,0,7.1c0,1.2,0,2.5,0,3.7c0,0.6,0,1.3,0,1.9l0,0.5l0,0.6c0,0.4,0,0.8,0.1,1.2c0,0,0,0.1,0,0.1c0,0.2,0,0.4-0.1,0.6
C257.1,508.3,257.1,509,256.9,509.7z M296.7,494.1v-29.3c18.6,2.6,23.8,19.1,23.8,29.3c0,13.7-6.1,27.7-12,27.7
C303.4,521.8,296.7,519,296.7,494.1z M358.3,420.3C358.3,420.3,358.3,420.3,358.3,420.3C358.3,420.3,358.3,420.3,358.3,420.3
C358.2,420.3,358.3,420.3,358.3,420.3z M353.1,459.4c0-3.6,0.2-7.2,0.4-10.8c0.5-7.1,1.2-14.2,2.8-20.6c0.4-1.6,0.9-3.1,1.4-4.5
c0.3-0.7,0.6-1.3,0.9-1.9c0.1-0.2,0.2-0.4,0.3-0.6c0,0,0,0,0,0.1c0.3,0.4,0.6,0.9,0.8,1.5c1.1,2.4,1.7,5.4,2,8.4
c0.3,3,0.3,6.1,0.1,9.2c-0.4,6.1-1.6,12.2-3,17.9c-0.8,2.9-1.5,5.8-2.2,8.6c-0.8,2.8-1.4,5.6-2.3,8.3c-0.4,1.3-0.7,2.5-1.1,3.7
c-0.1-2.7-0.1-5.5-0.1-8.2c0-1.9,0-3.7,0-5.6C353,463,353,461.2,353.1,459.4z M398.3,464.9C398.3,464.9,398.3,464.9,398.3,464.9
L398.3,464.9z M387.5,488.3c0.2-3,0.6-6.1,1.2-9c0.6-2.9,1.4-5.8,2.5-8.4c1.1-2.5,2.6-4.6,4.1-5.4c0.4-0.2,0.8-0.4,1.2-0.5l0.3-0.1
c0.1,0,0.1,0,0.2,0l0.1,0c0,0,0.2,0,0.3,0l0.6,0c0,0,0,0,0,0l0.1,0c0.1,0,0.1,0,0.1,0c0,0,0.1,0,0.1,0c0,0,0,0,0,0c0,0,0,0,0.1,0.1
c0.2,0.2,0.6,1.2,0.8,2.5c0.2,1.3,0.2,2.7,0.1,4.3c-0.2,3.1-0.8,6.4-1.6,9.7c-0.4,1.7-0.9,3.3-1.4,5c-0.2,0.8-0.5,1.6-0.8,2.5
c-0.3,0.8-0.6,1.6-0.9,2.4c-1.6,4.5-3.6,8.8-6,12.9c-0.5-2.4-0.9-4.9-1.1-7.4c-0.1-1.4-0.2-2.8-0.2-4.3
C387.4,491.1,387.5,489.7,387.5,488.3z"/>
<path id="letters" fill="#C69B24" d="M441.7,491.6l0-0.1c0-0.6-0.1-1.1-0.4-1.7c-1.1-2.7-4.1-4.1-6.9-3c0,0-0.5,0.2-1.3,0.8
c-0.8,0.5-1.7,1.5-2.8,2.9c-1.9,2.9-4.8,7-8.9,11.9c-1,1.2-2.1,2.4-3.3,3.7c-1.2,1.2-2.5,2.5-3.9,3.7c-2.7,2.4-5.9,4.8-9.4,6.5
c-0.4,0.2-0.9,0.4-1.3,0.6c-0.4,0.2-0.9,0.3-1.4,0.5c-0.4,0.1-0.9,0.4-1.4,0.4c-0.4,0.1-0.8,0.2-1.2,0.3l-0.6,0.2l-0.9,0.1
c-0.6,0-1.2,0.1-1.8,0.1l-0.1,0l-0.3,0c-0.2,0-0.3,0-0.5-0.1c-0.3,0-0.7-0.1-1-0.2c-1.3-0.5-2.7-1.5-4-3.1c-0.6-0.7-1.2-1.6-1.7-2.5
c0-0.1,0.1-0.1,0.1-0.2c4.9-6.5,8.5-13.6,11.1-20.9c0.3-0.9,0.7-1.8,1-2.7c0.3-0.8,0.6-1.8,0.9-2.7c0.6-1.8,1.1-3.7,1.5-5.5
c0.9-3.7,1.6-7.5,1.9-11.5c0.1-2,0.1-4.1-0.2-6.3c-0.2-1.1-0.4-2.3-0.8-3.5c-0.4-1.2-1-2.5-2-3.8c-1-1.3-2.4-2.4-4-3.1
c-0.4-0.2-0.8-0.3-1.2-0.4c-0.4-0.1-0.8-0.2-1.2-0.3c-0.4-0.1-0.8-0.1-1.2-0.1l-0.6,0c-0.2,0,0.1,0-0.5,0l-0.2,0l-0.6,0
c-0.1,0-0.2,0-0.4,0l-0.6,0.1l-1.1,0.2l-1,0.2c-1.3,0.3-2.5,0.8-3.6,1.4c-2.2,1.3-4,3-5.3,4.7c-1.3,1.8-2.4,3.6-3.2,5.4
c-1.6,3.6-2.5,7.1-3.2,10.6c-0.7,3.5-1.1,6.8-1.4,10.1c-0.1,1.8-0.2,3.5-0.2,5.2c0,1.7,0.1,3.4,0.2,5c0.5,5.9,1.6,11.5,3.6,16.8
l-0.9,0.9l-0.5,0.5l-0.3,0.2l0,0c0,0-0.1,0.1-0.1,0.1l-0.9,0.8c-2.5,2-5.3,3.7-8,4.4l-1,0.2c-0.3,0.1-0.5,0.1-0.8,0.1
c-0.2,0-0.2,0.1-0.4,0.1l-0.7,0l-0.7,0c0,0,0,0,0,0l-0.2,0c-0.8-0.1-1.8-0.5-2.8-1.2c-1-0.7-1.9-1.8-2.8-3.1c-0.4-0.6-0.8-1.3-1.2-2
c-0.4-0.7-0.7-1.4-1.1-2.2c-0.7-1.5-1.2-3.1-1.7-4.8l-0.7-2.4l-0.3-1.4l-0.2-0.7l-0.1-0.3c0,0,0-0.1,0-0.1c0,0,0,0,0,0l0-0.2
c-0.3-1.8-0.7-3.6-0.9-5.4c-0.1-0.4-0.1-0.9-0.2-1.3c0.5-1.2,1-2.3,1.5-3.5c2.1-4.9,4-10.2,6-15.6c2-5.5,4-11.1,5.5-17.2
c1.6-6.2,2.7-12.7,3.2-19.6c0.2-3.4,0.3-7-0.1-10.6c-0.4-3.6-1-7.4-2.7-11.3c-0.4-1-1-2-1.7-3c-0.7-1-1.6-2-2.9-3
c-0.4-0.2-0.7-0.5-1.1-0.7c-0.4-0.2-0.8-0.4-1.4-0.5c-0.5-0.1-1-0.3-1.6-0.3l-0.4,0c-0.1,0-1,0-0.7,0l-0.3,0l-0.2,0l-0.5,0.1
c-0.3,0.1-0.7,0.2-1,0.3c-0.4,0.1-0.5,0.2-0.8,0.3c-0.2,0.1-0.4,0.2-0.6,0.3c-0.4,0.2-0.7,0.5-1.1,0.8c-0.3,0.3-0.6,0.5-0.8,0.8
c-1,1.1-1.7,2.1-2.2,3.1c-0.6,1-1,2-1.4,2.9c-0.8,1.9-1.3,3.8-1.8,5.6c-1.9,7.4-2.7,14.8-3.2,22.3c-0.3,3.7-0.4,7.5-0.5,11.3
c0,1.9-0.1,3.8-0.1,5.7c0,1.9,0,3.7,0,5.6c0,7.5,0.1,15.2,0.8,23c0.1,1.4,0.3,2.8,0.5,4.2c-0.9,1.7-1.8,3.3-2.8,4.8
c-0.6,0.9-1.2,1.8-1.8,2.7c-0.6,0.9-1.2,1.7-1.8,2.5c-0.6,0.8-1.2,1.5-1.8,2.2c-0.6,0.7-1.4,1.5-2.1,2.2l-0.3,0.3
c-0.1,0.1,0.1-0.1,0,0l-0.1,0.1l-0.1,0.1l-0.5,0.4c-0.3,0.3-0.7,0.6-1,0.9c-0.6,0.6-1.3,1.1-2,1.6c-0.3,0.2-0.6,0.5-1,0.7
c-0.3,0.2-0.7,0.4-1,0.6c-0.6,0.4-1.3,0.8-1.9,1.2c-0.6,0.3-1.1,0.6-1.6,0.9c3.5-7,5.4-16,5.4-24.6c0-9.5-3.2-19-8.7-26
c-4.4-5.6-12.4-12.2-25.7-13.5c0-3.5,0-6.8,0-10c0-4.5,0.1-8.7,0.2-12.4c0.1-3.7,0.1-6.9,0.2-9.5c0.1-5.3,0.1-8.3,0.1-8.3
c0,0,0-0.1,0-0.1c0-2.8-2.3-5.1-5.1-5c-2.8,0-5.1,2.3-5,5.1c0,0,0,3,0.1,8.3c0,2.6,0.1,5.9,0.2,9.5c0.1,3.7,0.2,7.8,0.2,12.4
c0,4,0,14.1,0,14.8l-0.4,34.7c0,0.9,0,2,0,3.3c0,1.5,0,3.1,0,4.6c0,3,0,6-0.1,8.8c-0.2,2.7-0.5,5.4-1.3,7.3
c-0.4,0.9-0.8,1.7-1.3,2.1c-0.5,0.5-1,0.9-1.8,1.1c-0.8,0.3-1.7,0.4-2.8,0.5l-0.3,0l-0.2,0l-1.1-0.1c-0.9,0-1-0.2-1.3-0.3
c-0.3,0-0.7-0.3-1.1-0.4c-0.1,0-0.2-0.1-0.3-0.1l-0.3-0.2c-0.2-0.1-0.4-0.2-0.6-0.3c-0.4-0.2-0.7-0.6-1.1-0.9
c-0.3-0.3-0.7-0.7-1-1.1c-2.6-3.1-4.1-8-4.4-12.2c0-0.3,0-0.5,0-0.7l0-0.4l0-0.5c0-0.6,0-1.3,0-1.9c0-1.3,0-2.5,0-3.7
c0-2.4,0-4.8,0-7.1c0-18.1-0.1-30.2-0.1-30.2c0-0.4,0-1.9,0-2.4c-0.2-2.8-2.7-4.9-5.5-4.6c0,0-0.5,0-1.4,0.1
c-0.9,0.1-2.3,0.2-4.1,0.5c-1.8,0.3-4,0.7-6.5,1.3c-2.5,0.7-5.4,1.6-8.4,3.1c-3,1.5-6.2,3.6-8.9,6.5c-2.8,2.9-5,6.6-6.5,10.6
c-0.7,2-1.3,4-1.7,6.1c-0.4,2.1-0.6,4.2-0.7,6.4c-0.1,3.3,0,6.8,0.4,10.2c-0.2,0.5-0.3,1-0.2,1.6l0,0.1c0,1,0,2.2-0.1,3.3
c-0.1,1.1-0.2,2.3-0.3,3.4c-0.3,2.3-0.7,4.5-1.3,6.5c-0.6,2-1.4,3.8-2.4,5.1c-0.5,0.6-1,1.1-1.5,1.4c-0.5,0.3-1,0.5-1.6,0.6
c-0.1,0-0.3,0-0.5,0l-0.2,0l0,0l-0.1,0l-0.9-0.1c-0.1,0-0.4,0-0.4,0c-0.1,0-0.1,0-0.2-0.1c-0.1,0-0.2-0.1-0.3-0.1l-0.4-0.2
c-0.3-0.1-0.5-0.3-0.8-0.4c-0.9-0.6-1.8-1.7-2.5-3.4c-0.7-1.7-1.1-3.8-1.4-6c-0.3-2.2-0.3-4.5-0.3-6.8c0.1-4.7,0.6-9.5,1.3-14.4
c0.7-4.8,1.5-9.7,2.4-14.6l0.2-0.9l0-0.2l0.1-0.5l0.1-0.5c0-0.1,0-0.1,0-0.3l0-0.5c0-0.3,0-0.6,0-0.9c0-0.6-0.1-1.1-0.1-1.6
c-0.3-2.1-1.2-4.1-2.4-5.7c-1.2-1.7-2.9-3-4.7-4c-0.5-0.2-0.9-0.4-1.4-0.6c-0.5-0.2-1-0.3-1.5-0.4c-0.5-0.1-2.2-0.4-2.2-0.4
c-0.7-0.1-1-0.3-1.4-0.4l-1.5-0.5l-1.7-0.6l-1.7-0.6l-3.5-1.3l-0.9-0.3c-0.3-0.1-0.6-0.2-0.8-0.3l-1.4-0.6l0,0l-0.2-0.1
c-2.8-1-6,0.4-7.1,3.2c-0.4,1.1-0.8,2.1-1.3,3.1c-0.2,0.5-0.5,1-0.7,1.5c-0.2,0.5-0.5,1-0.8,1.5c-0.5,1-1.1,1.9-1.7,2.9
c-0.6,0.9-1.3,1.8-2,2.6l-0.5,0.6l-0.5,0.6c-0.3,0.3-0.6,0.7-0.9,1c-3.9-12.4-11.5-15.6-18.1-15.6c-16.1,0-23.3,18.7-23.3,37.2
c0,4.1,0.2,8,0.7,11.5c0,0.1,0,0.2,0,0.2l0,0.2c0,0,0,0.5,0,1.5c0,1-0.1,2.5-0.3,4.3c-0.2,1.8-0.7,3.9-1.5,6c-0.2,0.5-0.5,1-0.7,1.5
c-0.3,0.4-0.5,0.9-0.9,1.3c-0.2,0.2-0.3,0.4-0.5,0.5c-0.2,0.1-0.3,0.3-0.5,0.5c-0.4,0.2-0.7,0.5-1.1,0.6c-0.1,0-0.2,0.1-0.3,0.1
c-0.1,0-0.1,0-0.2,0c-0.1,0-0.1,0-0.2,0.1l-0.1,0.1c0,0-0.2,0-0.3,0c-0.4,0-0.8,0.1-1.2,0.1l0,0l-0.2,0c-0.1,0-0.2,0-0.4,0
c-0.9-0.1-1.7-0.5-2.6-1.2c-1.8-1.5-3.4-4.8-4.4-8.5c-0.2-0.9-0.4-1.9-0.6-2.8c-0.2-1-0.3-2-0.3-2.8c0-0.4,0-1-0.1-1.6l0-0.2l0-0.1
l0,0l0-0.4l0-0.9c0-1.2,0-2.3,0-3.5c0-4.7,0.1-9.4,0.1-14.1c0.1-18.9,0.3-37.8,0.4-52c0-3.5,0-6.8,0-9.7c0-2.9-0.1-5.4-0.1-7.5
c-0.1-4.1-0.3-6.5-0.3-6.5c-0.2-2.5-2.2-4.5-4.7-4.7c-2.8-0.2-5.2,1.9-5.4,4.7c0,0-0.2,2.4-0.3,6.5c0,2.1-0.1,4.6-0.1,7.5
c0,2.9,0,6.1,0,9.7c0,6.8,0.1,14.7,0.2,23.1c-2.6-1.1-5.6-1.8-9.2-1.8c-16.6,0-24,23.5-24,46.8l0,1.9c0,6.6,0.1,14-2.8,16.9
c-0.4,0.4-1.5,1.6-5,1.6c-9.4,0-11.4-14-11.4-16.7v-45.3c0-0.1,0-0.1,0-0.2c0-0.1,0-0.1,0-0.2c0-0.1,0-0.2-0.1-0.3
c0-0.2-0.1-0.3-0.1-0.5c0-0.2-0.1-0.3-0.1-0.5c-0.1-0.2-0.1-0.3-0.2-0.5c-0.1-0.1-0.1-0.3-0.2-0.4c-0.1-0.1-0.2-0.3-0.3-0.4
c-0.1-0.1-0.2-0.2-0.3-0.3c-0.1-0.1-0.2-0.3-0.4-0.4c-0.1-0.1-0.2-0.2-0.3-0.3c-0.2-0.1-0.3-0.2-0.5-0.3c-0.1-0.1-0.2-0.1-0.4-0.2
c-0.2-0.1-0.3-0.2-0.5-0.2c-0.1,0-0.3-0.1-0.4-0.1c-0.2,0-0.4-0.1-0.5-0.1c-0.2,0-0.3,0-0.5,0c-0.1,0-0.2,0-0.3,0
c-0.1,0-0.1,0-0.2,0c-0.1,0-0.1,0-0.2,0C18,453.5,4.2,467.8,4.2,490.7c0,22.6,9.9,38.3,24.1,38.3c3.8,0,10.9-1.1,15.3-8.2
c3.4,4.5,8.4,7.9,15.4,7.9c5.1,0,9.2-1.5,12.2-4.5c1.1-1.1,2-2.4,2.7-3.8c3.5,4.8,8.8,8.3,16.9,8.3c4.5,0,8.5-1.7,11.6-4.9
c1.1-1.1,2-2.4,2.9-3.8c1,1.7,2.3,3.3,3.9,4.7c2.2,1.9,5.1,3.2,8,3.5l1.1,0.1l0.5,0l0.1,0l0.1,0c0.2,0-0.4,0,0.5,0l0.2,0
c0.5,0,0.9-0.1,1.4-0.1c0.1,0,0.2,0,0.4,0l0.6-0.1c0.4-0.1,0.8-0.2,1.2-0.3c0.4-0.1,0.8-0.2,1.1-0.3l0.9-0.4c1.3-0.5,2.4-1.3,3.4-2
c0.5-0.4,0.9-0.8,1.4-1.3c0.5-0.4,0.8-0.9,1.1-1.3c0.7-0.8,1.2-1.7,1.7-2.5c3.7,5.6,8.8,8.6,15.1,8.6c13.9,0,22.2-14.5,22.2-38.9
c0-3.5-0.2-6.7-0.4-9.5c0.6-0.4,1.2-0.7,1.7-1.1c0.6-0.5,1.2-0.9,1.8-1.4l1.6-1.5c0.6-0.5,1-1,1.5-1.6l0.8-0.8l0.7-0.8
c1-1.1,1.8-2.3,2.6-3.4c0.8-1.2,1.6-2.4,2.3-3.6c0.4-0.6,0.7-1.2,1-1.8c0.2-0.3,0.3-0.6,0.5-0.9l2.4,0.7l1.9,0.6l1.9,0.5l0.9,0.3
l1.2,0.3c0.8,0.2,1.7,0.4,2.2,0.5l0.5,0.1l0.1,0l0.1,0l0.5,0.1l0.1,0c0.1,0,0.2,0,0.3,0c0.1,0,0.2,0,0.3,0.1c0.1,0,0.2,0.1,0.3,0.1
c0.4,0.2,0.7,0.4,1,0.8c0.3,0.3,0.4,0.7,0.5,1.1c0,0.1,0,0.2,0,0.3c0,0,0,0,0,0l0,0c0,0,0,0.1,0,0.2l-0.1,0.5l0,0.1l0,0.1l-0.2,0.9
c-0.9,4.9-1.7,9.9-2.4,15c-0.7,5.1-1.2,10.3-1.3,15.6c0,2.7,0.1,5.4,0.4,8.2c0.3,2.8,0.9,5.7,2.1,8.6c0.6,1.5,1.4,3,2.5,4.4
c1,1.4,2.5,2.7,4.1,3.8c0.8,0.5,1.7,1,2.6,1.2c0.5,0.2,0.9,0.3,1.4,0.5c0.5,0.1,1,0.2,1.5,0.3l0.8,0.1c0.3,0,0.3,0,0.5,0l0.9,0.1
l0.2,0l0.4,0l0.2,0l0.7,0c0.5,0,0.9,0,1.4-0.1c1.9-0.2,3.8-1,5.4-2c1.6-1,3-2.3,4-3.7c1.3-1.7,2.3-3.5,3-5.2
c1.1,1.6,2.4,3.1,3.8,4.4c0.8,0.8,1.8,1.4,2.8,2.1c0.5,0.3,1,0.6,1.5,0.9c0.5,0.3,1,0.6,1.6,0.7c0.5,0.2,1.1,0.4,1.6,0.6
c0.5,0.2,1.2,0.3,1.8,0.4l0.9,0.2l0.5,0.1c0.1,0,0.2,0,0.3,0c0.4,0,0.8,0.1,1.2,0.1l0.3,0l0.2,0l0.4,0l0,0l0.1,0l0.8,0
c0.5,0,1,0,1.6-0.1c1.1-0.2,2.1-0.3,3.1-0.7c1-0.3,2-0.8,3-1.2c0.5-0.3,0.9-0.5,1.3-0.8c0.5-0.3,0.9-0.6,1.2-0.9
c1.4-1.1,2.5-2.5,3.4-3.8c0.5,0.8,1.1,1.7,1.8,2.5c0.6,0.7,1.2,1.4,1.9,2c0.7,0.6,1.4,1.3,2.3,1.8l1.3,0.8l0.6,0.4
c0.2,0.1,0.5,0.2,0.7,0.3c1,0.4,1.8,0.8,3,1.1c1.1,0.3,2.4,0.5,3,0.5l1.1,0.1l0.3,0l0.1,0l0.5,0l0.1,0l0.7,0
c1.9-0.1,3.9-0.3,5.9-1.1c2-0.7,4.1-2,5.7-3.7c0.8-0.9,1.5-1.8,2.1-2.7c3.2,4.4,8.1,7.5,15.2,7.5c0.1,0,0.3,0,0.4,0c0,0,0.2,0,0.4,0
c0.4,0,0.8,0,1.4,0c1.1,0,2.7-0.1,4.7-0.4c4-0.6,9.8-2.1,16.2-6c0.8-0.5,1.6-1,2.4-1.6c0.4-0.3,0.8-0.6,1.2-0.9
c0.4-0.3,0.8-0.6,1.2-1c0.8-0.7,1.6-1.3,2.3-2c0.4-0.4,0.8-0.7,1.2-1.1l0.6-0.6l0.1-0.1l0.1-0.1l0.2-0.2l0.2-0.3
c0.7-0.8,1.3-1.5,2-2.3c0.7-0.9,1.5-1.8,2.2-2.8c0.7-0.9,1.3-1.9,2-2.8c0.1,0.4,0.2,0.9,0.3,1.3c0.6,2,1.2,4,2.1,5.9
c0.4,1,0.9,2,1.4,2.9c0.6,1,1.1,1.9,1.7,2.9c1.3,1.9,2.8,3.7,4.9,5.3c2,1.6,4.6,2.9,7.6,3.2l0.5,0.1c0.2,0-0.1,0,0.6,0l0.2,0l0.7,0
l0.7,0c0.2,0,0.7,0,1-0.1c0.7-0.1,1.4-0.1,2-0.3l1.7-0.4c4.6-1.2,8.5-3.5,11.8-6.2l1.2-1c0.3,0.4,0.6,0.9,1,1.3
c2.1,2.6,5.1,5,8.7,6.3c0.9,0.3,1.8,0.5,2.8,0.7c0.5,0.1,0.9,0.1,1.4,0.2l0.7,0l0.3,0c0,0,0.4,0,0.5,0l0.1,0c0.6,0,1.3-0.1,1.9-0.1
l0.9-0.1l1.2-0.2c0.8-0.1,1.6-0.3,2.4-0.5c0.8-0.2,1.4-0.4,2.1-0.6c0.7-0.2,1.4-0.4,2-0.7c0.6-0.3,1.2-0.6,1.9-0.8
c4.9-2.3,8.7-5.2,11.9-8c1.7-1.4,3.1-2.9,4.5-4.2c1.3-1.4,2.6-2.8,3.7-4.1c4.6-5.3,7.6-9.7,10-12.5c1.1-1.5,1.7-2.8,1.9-3.7
C441.7,492.2,441.7,491.6,441.7,491.6z M37.4,503.6c0,15.2-6.9,15.2-9.1,15.2c-8,0-13.9-12.1-13.9-28.1c0-15.9,7.8-25.4,23.1-28.4
v39.5c0,0.4,0,0.9,0,1.4C37.4,503.3,37.4,503.5,37.4,503.6z M90.8,518.5c-3.8,0-12.6,0-13.7-25.4c0-0.1,0-0.2,0-0.3
c1-17.6,6.8-31.2,13.7-31.2c4.4,0,7.6,2,9.3,3.4c0,5.6,0.1,11.4,0.1,17.1c0,4.7,0.1,9.5,0.1,14.1c0,0.7,0,1.5,0,2.2
c-0.2,5-1.3,14.3-5.2,18.3C93.9,517.9,92.6,518.5,90.8,518.5z M149.3,462.8c5,0,7.7,4.9,9.1,10.9c0,0-0.1,0-0.1,0l-0.7,0.2l-0.7,0.1
c-0.5,0.1-1,0.2-1.5,0.2l-1.5,0.1l-0.4,0l0,0l0,0l-0.9-0.1l-0.5,0c-0.1,0-0.2,0-0.2,0l-0.1,0c-0.1,0-0.2-0.1-0.4-0.1
c-0.2,0-0.6-0.2-1-0.3c-0.4-0.1-0.8-0.3-1.1-0.5c-0.8-0.4-1.5-0.9-2.2-1.5c-0.4-0.3-0.7-0.7-1.1-1c-0.3-0.4-0.7-0.7-1-1.1
c-0.7-0.8-1.3-1.6-1.9-2.5c-0.2-0.3-0.4-0.7-0.6-1C144.2,464.2,146.5,462.8,149.3,462.8z M156.7,510.4c-3.2,8.1-7.4,8.1-8.8,8.1
c-1.4,0-5.5,0-8.7-8.1c-2-5.2-3.1-12.5-3.1-20.6c0-3.9,0.5-8.5,1.5-12.7c0.3,0.4,0.6,0.7,1,1.1c0.6,0.5,1.1,1.1,1.7,1.6
c1.2,1,2.5,2,4,2.8c0.7,0.4,1.5,0.8,2.3,1.1c0.8,0.3,1.6,0.6,2.6,0.8c0.5,0.1,1,0.2,1.5,0.3l0.4,0.1l0.2,0l0.5,0l0.9,0.1l0.2,0
l0.1,0l0.4,0l0.1,0l0.6,0l2.3-0.1c0.8-0.1,1.5-0.2,2.3-0.3l1-0.2c0.1,1.9,0.1,3.7,0.1,5.4C159.9,497.8,158.8,505.1,156.7,510.4z
 M196.5,455.8C196.5,455.8,196.5,455.8,196.5,455.8C196.5,455.8,196.5,455.8,196.5,455.8z M252.8,506.4c-0.2,1.5-0.5,3.2-1.2,4.9
c-0.3,0.9-0.7,1.7-1.2,2.4c-0.5,0.7-1,1.4-1.7,1.9c-0.2,0.1-0.3,0.3-0.5,0.4c-0.2,0.1-0.4,0.2-0.5,0.3c-0.4,0.2-0.8,0.4-1.3,0.5
c-0.4,0.2-1,0.2-1.5,0.3c-0.3,0-0.6,0-0.9,0l-0.4,0l-0.3,0c-0.4,0-0.8-0.1-1.2-0.1c-0.1,0-0.2,0-0.3,0l-0.2-0.1l-0.3-0.1
c-0.2-0.1-0.4,0-0.7-0.2c-0.3-0.1-0.5-0.2-0.8-0.3c-0.3-0.1-0.5-0.2-0.8-0.4c-0.3-0.2-0.5-0.2-0.8-0.4c-0.5-0.4-1-0.7-1.5-1.2
c-1.9-1.7-3.5-4.4-4.7-7.4c-1.2-3-1.9-6.5-2.3-10c-0.4-3.5-0.5-7.1-0.4-10.7c0.1-1.5,0.3-3.2,0.6-4.8c0.3-1.6,0.7-3.1,1.2-4.4
c1-2.8,2.5-5.1,4.4-7c1.8-1.9,3.9-3.3,6.1-4.4c2.2-1.1,4.4-1.8,6.4-2.4c1.8-0.5,3.4-0.8,4.8-1c0,4.9,0,14.3-0.1,26.3
c0,2.3,0,4.6,0,7.1c0,1.2,0,2.5,0,3.7c0,0.6,0,1.3,0,1.9l0,0.5l0,0.6c0,0.4,0,0.8,0.1,1.2c0,0,0,0.1,0,0.1c0,0.2,0,0.4-0.1,0.6
C253,505,252.9,505.6,252.8,506.4z M292.6,490.8v-29.3c18.6,2.6,23.8,19.1,23.8,29.3c0,13.7-6.1,27.7-12,27.7
C299.3,518.5,292.6,515.6,292.6,490.8z M354.2,417C354.2,417,354.2,417,354.2,417C354.2,417,354.1,417,354.2,417
C354.1,417,354.1,417,354.2,417z M348.9,456.1c0-3.6,0.2-7.2,0.4-10.8c0.5-7.1,1.2-14.2,2.8-20.6c0.4-1.6,0.9-3.1,1.4-4.5
c0.3-0.7,0.6-1.3,0.9-1.9c0.1-0.2,0.2-0.4,0.3-0.6c0,0,0,0,0,0.1c0.3,0.4,0.6,0.9,0.8,1.5c1.1,2.4,1.7,5.4,2,8.4
c0.3,3,0.3,6.1,0.1,9.2c-0.4,6.1-1.6,12.2-3,17.9c-0.8,2.9-1.5,5.8-2.2,8.6c-0.8,2.8-1.4,5.6-2.3,8.3c-0.4,1.3-0.7,2.5-1.1,3.7
c-0.1-2.7-0.1-5.5-0.1-8.2c0-1.9,0-3.7,0-5.6C348.9,459.7,348.9,457.9,348.9,456.1z M394.1,461.6
C394.1,461.6,394.1,461.6,394.1,461.6L394.1,461.6z M383.4,485c0.2-3,0.6-6.1,1.2-9c0.6-2.9,1.4-5.8,2.5-8.4
c1.1-2.5,2.6-4.6,4.1-5.4c0.4-0.2,0.8-0.4,1.2-0.5l0.3-0.1c0.1,0,0.1,0,0.2,0l0.1,0c0,0,0.2,0,0.3,0l0.6,0c0,0,0,0,0,0l0.1,0
c0.1,0,0.1,0,0.1,0c0,0,0.1,0,0.1,0c0,0,0,0,0,0c0,0,0,0,0.1,0.1c0.2,0.2,0.6,1.2,0.8,2.5c0.2,1.3,0.2,2.7,0.1,4.3
c-0.2,3.1-0.8,6.4-1.6,9.7c-0.4,1.7-0.9,3.3-1.4,5c-0.2,0.8-0.5,1.6-0.8,2.5c-0.3,0.8-0.6,1.6-0.9,2.4c-1.6,4.5-3.6,8.8-6,12.9
c-0.5-2.4-0.9-4.9-1.1-7.4c-0.1-1.4-0.2-2.8-0.2-4.3C383.3,487.8,383.3,486.4,383.4,485z"/>
<g id="sheen">
<path fill="#FFFFFF" d="M31.8,457.7c-0.4,0-0.8-0.3-1-0.7c-0.2-0.5,0.1-1.1,0.7-1.3c0.1,0,1.9-0.6,5-1.2c0.6-0.1,1.1,0.2,1.2,0.8
  c0.1,0.5-0.2,1.1-0.8,1.2c-3.1,0.7-4.8,1.2-4.9,1.2C32,457.7,31.9,457.7,31.8,457.7z"/>
<path fill="#FFFFFF" d="M80.2,461.2c-0.1,0-0.3,0-0.4-0.1c-0.5-0.2-0.7-0.8-0.5-1.3c0.1-0.2,0.4-0.8,1.4-1.6
  c0.4-0.3,1.1-0.3,1.4,0.2c0.3,0.4,0.3,1.1-0.2,1.4c-0.6,0.5-0.8,0.8-0.8,0.8C80.9,461,80.6,461.2,80.2,461.2z"/>
<path fill="#FFFFFF" d="M103.2,406.9c-0.1,0-0.3,0-0.4-0.1c-0.5-0.2-0.7-0.8-0.5-1.4c0.1-0.2,0.6-0.9,1.2-1.4
  c0.4-0.4,1.1-0.3,1.4,0.1c0.4,0.4,0.3,1.1-0.1,1.4c-0.5,0.4-0.8,0.8-0.8,0.9C103.9,406.7,103.5,406.9,103.2,406.9z"/>
<path fill="#FFFFFF" d="M285.8,412.1c-0.1,0-0.3,0-0.4-0.1c-0.5-0.2-0.7-0.8-0.5-1.4c0.1-0.2,0.6-0.9,1.2-1.4
  c0.4-0.4,1.1-0.3,1.4,0.1c0.4,0.4,0.3,1.1-0.1,1.4c-0.5,0.4-0.8,0.8-0.8,0.9C286.5,412,286.2,412.1,285.8,412.1z"/>
<path fill="#FFFFFF" d="M85.5,456.7c-0.3,0-0.7-0.2-0.8-0.5c-0.3-0.5-0.2-1.1,0.3-1.4c0.1-0.1,2.7-1.8,6.1-1.3
  c0.6,0.1,0.9,0.6,0.9,1.1c-0.1,0.6-0.6,0.9-1.1,0.9c-2.6-0.4-4.7,1-4.7,1C85.9,456.7,85.7,456.7,85.5,456.7z"/>
<path fill="#FFFFFF" d="M349.1,416.2c-0.1,0-0.2,0-0.3,0c-0.5-0.2-0.8-0.7-0.7-1.3c0-0.1,1.1-3.6,4.5-4.5c0.5-0.1,1.1,0.2,1.2,0.7
  c0.1,0.5-0.2,1.1-0.7,1.2c-2.3,0.6-3.1,3-3.1,3.1C349.9,415.9,349.5,416.2,349.1,416.2z"/>
<path fill="#FFFFFF" d="M383.8,461.6c-0.1,0-0.2,0-0.3,0c-0.5-0.2-0.8-0.7-0.7-1.3c0-0.1,1.1-3.6,4.5-4.5c0.5-0.1,1.1,0.2,1.2,0.7
  c0.1,0.5-0.2,1.1-0.7,1.2c-2.3,0.6-3.1,3.1-3.1,3.1C384.7,461.4,384.3,461.6,383.8,461.6z"/>
<path fill="#FFFFFF" d="M432.4,492.4c-0.2,0-0.4-0.1-0.6-0.2c-0.5-0.3-0.6-0.9-0.3-1.4c0.8-1.3,1.9-2.7,3.5-3.3
  c0.5-0.2,1.1,0,1.3,0.6c0.2,0.5,0,1.1-0.6,1.3c-1.1,0.4-1.9,1.5-2.6,2.5C433.1,492.3,432.8,492.4,432.4,492.4z"/>
<path fill="#FFFFFF" d="M179,456.7c-0.1,0-0.2,0-0.3,0c-0.5-0.2-0.8-0.7-0.7-1.3c0.2-0.7,0.9-2,2.4-2.3c0.5-0.1,1.1,0.2,1.2,0.7
  c0.1,0.5-0.2,1.1-0.7,1.2c-0.6,0.2-0.9,0.9-0.9,0.9C179.9,456.4,179.5,456.7,179,456.7z"/>
<path fill="#FFFFFF" d="M203.2,464.3c-0.5,0-0.9-0.4-0.9-0.9c-0.1-0.6-0.8-1-0.8-1c-0.5-0.2-0.7-0.8-0.5-1.3
  c0.2-0.5,0.8-0.7,1.3-0.5c0.7,0.3,1.8,1.2,2,2.6c0.1,0.6-0.3,1.1-0.9,1.1C203.3,464.3,203.3,464.3,203.2,464.3z"/>
<path fill="#FFFFFF" d="M139.9,460.6c-0.2,0-0.4-0.1-0.6-0.2c-0.4-0.3-0.5-1-0.2-1.4c0.1-0.1,2.5-3.2,5.8-3.4c0.6,0,1,0.4,1.1,0.9
  c0,0.6-0.4,1-0.9,1.1c-2.4,0.2-4.3,2.6-4.3,2.6C140.5,460.5,140.2,460.6,139.9,460.6z"/>
<path fill="#FFFFFF" d="M26.9,458.4L26.9,458.4c-0.2-0.5,0.1-1.1,0.6-1.3c0.2-0.1,0.4-0.1,0.5-0.2c0.5-0.2,1.1,0.2,1.3,0.7
  c0.2,0.5-0.2,1.1-0.7,1.3c-0.1,0-0.3,0.1-0.5,0.1C27.7,459.2,27.1,458.9,26.9,458.4z"/>
<path fill="#FFFFFF" d="M247.5,457.6c-0.4,0-0.8-0.3-1-0.7c-0.2-0.5,0.1-1.1,0.7-1.3c0.1,0,1.8-0.6,5-1.3c0.5-0.1,1.1,0.2,1.2,0.8
  c0.1,0.5-0.2,1.1-0.8,1.2c-3.1,0.7-4.8,1.2-4.9,1.2C247.7,457.6,247.6,457.6,247.5,457.6z"/>
<path fill="#FFFFFF" d="M242.6,458.3L242.6,458.3c-0.2-0.5,0.1-1.1,0.6-1.3c0.2-0.1,0.4-0.1,0.5-0.2c0.5-0.2,1.1,0.1,1.3,0.7
  c0.2,0.5-0.1,1.1-0.7,1.3c-0.1,0-0.3,0.1-0.5,0.2C243.4,459.1,242.8,458.9,242.6,458.3z"/>
</g>
</svg>
