<?xml version="1.0" encoding="utf-8"?>
<!-- Generator: Adobe Illustrator 17.1.0, SVG Export Plug-In . SVG Version: 6.00 Build 0)  -->
<!DOCTYPE svg PUBLIC "-//W3C//DTD SVG 1.1//EN" "http://www.w3.org/Graphics/SVG/1.1/DTD/svg11.dtd">
<svg version="1.1" id="Layer_1" xmlns="http://www.w3.org/2000/svg" xmlns:xlink="http://www.w3.org/1999/xlink" x="0px" y="0px"
   viewBox="0 0 514 329" enable-background="new 0 0 514 329" xml:space="preserve" preserveAspectRatio="xMidYMin meet">
<path fill="#C2E6EA" d="M447,243c0,87.65-185.26,75.52-237.34,71.66c-41-3.03-94.38-9.74-125.07-40.6
  c-14.02-14.1-14.95-35.07-11.4-56.83c3.76-23.12,12.56-47.12,16.09-64.7C108,59,217.95-43.22,300.08,32.91
  c36.11,33.46,56.98,46.32,90.33,71.14c36.4,27.09,51.69,70.58,55.55,114.69C446.67,226.84,447,234.96,447,243z"/>
<g class="object">
  <path fill="#61ABAD" d="M115.45,151.344c0,0-0.18,0.528-0.518,1.517c-0.328,0.987-0.859,2.444-1.431,4.28
    c-0.293,0.919-0.618,1.936-0.971,3.043c-0.333,1.117-0.694,2.324-1.079,3.615c-0.745,2.586-1.55,5.511-2.333,8.719
    c-0.412,1.599-0.755,3.283-1.157,5.012c-0.368,1.737-0.72,3.536-1.073,5.383c-0.296,1.857-0.678,3.751-0.918,5.703
    c-0.134,0.973-0.27,1.957-0.408,2.95c-0.104,0.994-0.208,1.998-0.314,3.01c-0.39,4.044-0.635,8.224-0.525,12.42
    c0.083,4.193,0.408,8.421,1.218,12.482c0.781,4.064,1.947,7.977,3.536,11.538c1.627,3.542,3.712,6.676,6.078,9.326l0.898,0.976
    c0.293,0.327,0.583,0.653,0.926,0.927c0.648,0.578,1.29,1.15,1.926,1.716c0.661,0.536,1.373,1.002,2.035,1.501
    c0.339,0.241,0.659,0.498,1.004,0.724c0.358,0.208,0.715,0.416,1.068,0.621c0.71,0.406,1.383,0.837,2.083,1.212
    c0.726,0.338,1.441,0.672,2.145,0.999c0.349,0.165,0.695,0.329,1.038,0.492c0.356,0.143,0.723,0.263,1.078,0.395
    c0.711,0.259,1.408,0.514,2.091,0.763c0.664,0.278,1.386,0.43,2.063,0.622c0.68,0.186,1.345,0.368,1.992,0.545
    c0.635,0.2,1.295,0.313,1.931,0.431c0.634,0.121,1.25,0.239,1.847,0.353c0.599,0.108,1.164,0.242,1.732,0.321
    c0.572,0.067,1.124,0.131,1.654,0.193c1.056,0.127,2.027,0.243,2.903,0.348c3.571,0.201,5.611,0.316,5.611,0.316l0.43,0.024
    c4.419,0.249,7.8,4.032,7.551,8.451c-0.249,4.419-4.032,7.8-8.451,7.551c-0.228-0.013-0.469-0.038-0.691-0.069
    c0,0-0.599-0.086-1.721-0.248c-1.122-0.169-2.764-0.386-4.851-0.726c-1.045-0.221-2.202-0.466-3.462-0.733
    c-0.628-0.135-1.281-0.275-1.959-0.42c-0.677-0.159-1.378-0.383-2.101-0.583c-0.722-0.208-1.467-0.423-2.234-0.645
    c-0.766-0.219-1.553-0.438-2.352-0.759c-0.799-0.298-1.618-0.604-2.457-0.917c-0.835-0.323-1.697-0.605-2.549-1.037
    c-0.855-0.403-1.728-0.815-2.617-1.235c-0.442-0.214-0.892-0.416-1.338-0.647c-0.438-0.254-0.88-0.511-1.325-0.77
    c-0.885-0.521-1.786-1.051-2.7-1.589c-0.891-0.585-1.764-1.244-2.659-1.88c-0.444-0.322-0.892-0.647-1.342-0.974
    c-0.437-0.347-0.854-0.733-1.284-1.102c-0.847-0.757-1.731-1.486-2.559-2.296c-0.793-0.848-1.595-1.705-2.404-2.571
    c-0.416-0.42-0.777-0.893-1.138-1.369c-0.363-0.473-0.727-0.949-1.092-1.426c-2.859-3.856-5.183-8.243-6.803-12.855
    c-1.583-4.625-2.525-9.42-2.997-14.172c-0.498-4.758-0.428-9.473-0.105-14.04c0.299-4.575,0.964-8.996,1.76-13.216
    c0.207-1.053,0.413-2.096,0.617-3.13c0.237-1.024,0.471-2.038,0.704-3.041c0.436-2.012,1.007-3.938,1.488-5.829
    c0.537-1.876,1.067-3.695,1.607-5.444c0.573-1.739,1.082-3.431,1.65-5.027c1.098-3.205,2.186-6.107,3.18-8.664
    c0.509-1.273,0.986-2.464,1.426-3.566c0.463-1.096,0.887-2.102,1.271-3.012c0.758-1.829,1.405-3.2,1.824-4.163
    c0.426-0.955,0.653-1.464,0.653-1.464c0.351-0.787,1.273-1.14,2.059-0.789C115.35,149.746,115.705,150.59,115.45,151.344z"/>

</g>

<path fill="none" stroke="#61ABAD" stroke-width="6" stroke-linecap="round" stroke-linejoin="round" stroke-miterlimit="10" d="
  M211.565,97.4c0,0-11.028,23.829-24.008,2.313"/>
<path fill="none" stroke="#61ABAD" stroke-width="6" stroke-linecap="round" stroke-linejoin="round" stroke-miterlimit="10" d="
  M352.8,123.758c0,0-7.8,17.242-38.226,7.194"/>

<g class="water">
  <path opacity="0.4" fill="#77CDD0" d="M447,243c0,87.65-185.26,75.52-237.34,71.66c-41-3.03-94.38-9.74-125.07-40.6
    c-14.02-14.1-14.834-36.622-11.699-54.925c0,0,201.112,9.56,373.069-0.395C446.67,226.84,447,234.96,447,243z"/>
</g>

<g class="ripple one">

  <path fill="#FFFFFF" d="M410.994,227.312c0,0,8.639-0.564,21.597-1.41c6.476-0.423,14.029-0.913,22.111-1.505
    c4.041-0.289,8.211-0.637,12.445-0.99c4.233-0.358,8.527-0.764,12.8-1.252c4.271-0.477,8.54-1.009,12.637-1.766
    c2.032-0.39,4.067-0.818,5.841-1.413c0.441-0.147,0.855-0.314,1.197-0.481c0.327-0.14,0.632-0.407,0.524-0.28
    c-0.023,0.029-0.03,0.054-0.047,0.096c-0.034,0.058-0.057,0.124-0.067,0.191c-0.023,0.078-0.043,0.178-0.036,0.269
    c-0.023-0.265,0.038,0.449,0.027,0.347l-0.007-0.048l-0.015-0.095l-0.015-0.095c-0.007-0.05,0.001,0.086,0.01,0.121
    c0.02,0.117,0.068,0.232,0.132,0.326c0.045,0.062,0.054,0.072,0.046,0.067l0.002,0.008c0.003,0.004,0.009,0.006,0.017,0.005
    c-0.065-0.082-0.398-0.306-0.736-0.483c-1.505-0.748-3.449-1.266-5.265-1.739c-1.846-0.467-3.694-0.857-5.502-1.207
    c-3.62-0.691-7.082-1.254-10.283-1.745c-6.408-0.959-11.775-1.695-15.536-2.165c-3.762-0.489-5.911-0.768-5.911-0.768
    c-0.274-0.036-0.468-0.287-0.432-0.561c0.033-0.256,0.259-0.441,0.511-0.436c0,0,2.171,0.051,5.966,0.225
    c3.794,0.202,9.22,0.433,15.723,1.01c3.253,0.283,6.777,0.631,10.507,1.155c1.866,0.26,3.783,0.559,5.754,0.948
    c0.985,0.188,1.984,0.419,3,0.689c1.019,0.275,2.048,0.583,3.156,1.08c0.564,0.282,1.141,0.546,1.824,1.169l0.269,0.295
    l0.129,0.153c0.037,0.042,0.085,0.102,0.155,0.224c0.124,0.208,0.231,0.436,0.311,0.667c0.034,0.093,0.087,0.28,0.088,0.295
    l0.019,0.095l0.019,0.095l0.009,0.047c-0.001-0.07,0.059,0.676,0.029,0.443c-0.012,0.217-0.04,0.447-0.091,0.65
    c-0.056,0.187-0.125,0.373-0.205,0.552c-0.078,0.155-0.161,0.286-0.251,0.424c-0.349,0.493-0.704,0.794-1.012,1.023
    c-0.32,0.242-0.615,0.417-0.903,0.574c-0.577,0.315-1.127,0.554-1.668,0.764c-2.16,0.832-4.268,1.335-6.41,1.814
    c-4.269,0.925-8.59,1.605-12.918,2.215c-4.328,0.584-8.656,1.082-12.918,1.53c-4.261,0.453-8.459,0.803-12.52,1.145
    c-8.123,0.66-15.709,1.134-22.213,1.467c-6.503,0.349-11.927,0.513-15.721,0.662c-3.799,0.127-5.964,0.165-5.964,0.165l-0.023,0
    c-1.261,0.022-2.301-0.983-2.323-2.244C408.838,228.408,409.788,227.393,410.994,227.312z"/>

  <path fill="#FFffFF" d="M158.697,229.124c0,0,12.904,0.226,32.261,0.565c4.839,0.085,10.081,0.177,15.626,0.274
    c5.541,0.029,11.384,0.059,17.429,0.09c6.045,0.03,12.291,0.061,18.638,0.092c6.341,0.015,12.808,0.1,19.228,0.059
    c12.906-0.077,25.812-0.155,37.911-0.227c6.048-0.054,11.901-0.03,17.44-0.145c5.539-0.11,10.776-0.213,15.61-0.309
    c19.336-0.382,32.227-0.637,32.227-0.637l0.036-0.001c1.306-0.026,2.385,1.012,2.411,2.317c0.026,1.306-1.01,2.385-2.316,2.411
    c0,0-12.916,0.262-32.291,0.654c-4.844,0.098-10.091,0.204-15.641,0.317c-5.55,0.117-11.395,0.096-17.446,0.153
    c-12.099,0.078-25.005,0.161-37.911,0.243c-6.486,0.023-12.924-0.081-19.288-0.114c-6.357-0.05-12.614-0.099-18.669-0.146
    c-6.054-0.049-11.907-0.096-17.457-0.141c-5.544-0.113-10.787-0.22-15.625-0.318c-19.355-0.394-32.259-0.657-32.259-0.657
    c-1.237-0.025-2.219-1.048-2.194-2.286S157.46,229.099,158.697,229.124z"/>

  <path fill="#FFFFFF" d="M64.931,211.05c0,0-2.57,0.309-7.068,0.85c-4.497,0.516-10.914,1.353-18.573,2.449
    c-3.826,0.558-7.966,1.215-12.262,2.11c-2.14,0.453-4.339,0.966-6.428,1.659c-0.518,0.174-1.031,0.36-1.499,0.568
    c-0.478,0.199-0.914,0.434-1.189,0.632c-0.048,0.043-0.152,0.102-0.141,0.117c-0.016,0.02-0.053,0.052,0.014-0.018
    c0.029-0.037,0-0.03,0.055-0.113c0.04-0.072,0.063-0.157,0.065-0.239c-0.003,0.026,0.025-0.556,0.015-0.278l0.002,0.056
    l0.005,0.113c0,0.033,0.003,0.036,0.006-0.029c0.002-0.043,0.001-0.088-0.004-0.132c-0.009-0.088-0.03-0.176-0.062-0.257
    c-0.046-0.102-0.049-0.112-0.053-0.129c-0.007-0.02-0.017-0.038-0.029-0.056c-0.038-0.044-0.026-0.045-0.026-0.045
    c-0.022-0.016,0.035,0.022,0.073,0.053c0.102,0.074,0.282,0.177,0.478,0.276c0.841,0.405,1.959,0.747,3.079,1.036
    c1.13,0.291,2.308,0.54,3.503,0.766c2.393,0.45,4.863,0.812,7.359,1.156c4.998,0.67,10.122,1.19,15.255,1.641
    c5.132,0.47,10.277,0.879,15.346,1.234c5.073,0.339,10.065,0.673,14.897,0.996c9.67,0.585,18.7,1.161,26.446,1.551
    c7.746,0.428,14.202,0.785,18.72,1.035c4.519,0.265,7.102,0.416,7.102,0.416c1.116,0.065,1.967,1.023,1.902,2.139
    c-0.063,1.078-0.959,1.909-2.026,1.905l-0.02,0c0,0-2.592-0.014-7.125-0.109c-4.532-0.125-11.012-0.219-18.779-0.554
    c-7.767-0.337-16.834-0.693-26.54-1.33c-4.852-0.322-9.868-0.647-14.96-1.086c-5.092-0.427-10.265-0.899-15.436-1.453
    c-5.169-0.577-10.336-1.223-15.424-2.027c-2.545-0.401-5.067-0.858-7.566-1.418c-1.25-0.28-2.494-0.586-3.739-0.952
    c-1.25-0.377-2.482-0.766-3.81-1.456c-0.338-0.187-0.683-0.39-1.059-0.685c-0.194-0.163-0.377-0.308-0.59-0.56
    c-0.1-0.115-0.196-0.22-0.304-0.399l-0.147-0.248c-0.045-0.081-0.089-0.153-0.151-0.33c-0.055-0.152-0.099-0.312-0.13-0.471
    l-0.038-0.239c-0.012-0.101-0.012-0.14-0.012-0.14l-0.001-0.113l-0.001-0.056c-0.014,0.24,0.016-0.379,0.028-0.388
    c0.046-0.226,0.112-0.454,0.195-0.67c0.085-0.233,0.176-0.333,0.276-0.5c0.212-0.336,0.402-0.502,0.6-0.691
    c0.211-0.21,0.372-0.298,0.56-0.437c0.712-0.468,1.351-0.754,1.972-0.983c0.625-0.24,1.227-0.425,1.825-0.595
    c2.384-0.664,4.669-1.075,6.9-1.438c4.457-0.707,8.66-1.167,12.542-1.545c7.762-0.757,14.241-1.041,18.771-1.295
    c2.264-0.124,4.05-0.173,5.262-0.221c1.214-0.043,1.861-0.066,1.861-0.066c0.276-0.01,0.508,0.206,0.518,0.482
    C65.381,210.796,65.186,211.018,64.931,211.05z"/>

</g>

<g class="ripple two">

    <path fill="#ffffff" d="M410.994,227.312c0,0,8.639-0.564,21.597-1.41c6.476-0.423,14.029-0.913,22.111-1.505
      c4.041-0.289,8.211-0.637,12.445-0.99c4.233-0.358,8.527-0.764,12.8-1.252c4.271-0.477,8.54-1.009,12.637-1.766
      c2.032-0.39,4.067-0.818,5.841-1.413c0.441-0.147,0.855-0.314,1.197-0.481c0.327-0.14,0.632-0.407,0.524-0.28
      c-0.023,0.029-0.03,0.054-0.047,0.096c-0.034,0.058-0.057,0.124-0.067,0.191c-0.023,0.078-0.043,0.178-0.036,0.269
      c-0.023-0.265,0.038,0.449,0.027,0.347l-0.007-0.048l-0.015-0.095l-0.015-0.095c-0.007-0.05,0.001,0.086,0.01,0.121
      c0.02,0.117,0.068,0.232,0.132,0.326c0.045,0.062,0.054,0.072,0.046,0.067l0.002,0.008c0.003,0.004,0.009,0.006,0.017,0.005
      c-0.065-0.082-0.398-0.306-0.736-0.483c-1.505-0.748-3.449-1.266-5.265-1.739c-1.846-0.467-3.694-0.857-5.502-1.207
      c-3.62-0.691-7.082-1.254-10.283-1.745c-6.408-0.959-11.775-1.695-15.536-2.165c-3.762-0.489-5.911-0.768-5.911-0.768
      c-0.274-0.036-0.468-0.287-0.432-0.561c0.033-0.256,0.259-0.441,0.511-0.436c0,0,2.171,0.051,5.966,0.225
      c3.794,0.202,9.22,0.433,15.723,1.01c3.253,0.283,6.777,0.631,10.507,1.155c1.866,0.26,3.783,0.559,5.754,0.948
      c0.985,0.188,1.984,0.419,3,0.689c1.019,0.275,2.048,0.583,3.156,1.08c0.564,0.282,1.141,0.546,1.824,1.169l0.269,0.295
      l0.129,0.153c0.037,0.042,0.085,0.102,0.155,0.224c0.124,0.208,0.231,0.436,0.311,0.667c0.034,0.093,0.087,0.28,0.088,0.295
      l0.019,0.095l0.019,0.095l0.009,0.047c-0.001-0.07,0.059,0.676,0.029,0.443c-0.012,0.217-0.04,0.447-0.091,0.65
      c-0.056,0.187-0.125,0.373-0.205,0.552c-0.078,0.155-0.161,0.286-0.251,0.424c-0.349,0.493-0.704,0.794-1.012,1.023
      c-0.32,0.242-0.615,0.417-0.903,0.574c-0.577,0.315-1.127,0.554-1.668,0.764c-2.16,0.832-4.268,1.335-6.41,1.814
      c-4.269,0.925-8.59,1.605-12.918,2.215c-4.328,0.584-8.656,1.082-12.918,1.53c-4.261,0.453-8.459,0.803-12.52,1.145
      c-8.123,0.66-15.709,1.134-22.213,1.467c-6.503,0.349-11.927,0.513-15.721,0.662c-3.799,0.127-5.964,0.165-5.964,0.165l-0.023,0
      c-1.261,0.022-2.301-0.983-2.323-2.244C408.838,228.408,409.788,227.393,410.994,227.312z"/>

    <path fill="#FFFFFF" d="M158.697,229.124c0,0,12.904,0.226,32.261,0.565c4.839,0.085,10.081,0.177,15.626,0.274
      c5.541,0.029,11.384,0.059,17.429,0.09c6.045,0.03,12.291,0.061,18.638,0.092c6.341,0.015,12.808,0.1,19.228,0.059
      c12.906-0.077,25.812-0.155,37.911-0.227c6.048-0.054,11.901-0.03,17.44-0.145c5.539-0.11,10.776-0.213,15.61-0.309
      c19.336-0.382,32.227-0.637,32.227-0.637l0.036-0.001c1.306-0.026,2.385,1.012,2.411,2.317c0.026,1.306-1.01,2.385-2.316,2.411
      c0,0-12.916,0.262-32.291,0.654c-4.844,0.098-10.091,0.204-15.641,0.317c-5.55,0.117-11.395,0.096-17.446,0.153
      c-12.099,0.078-25.005,0.161-37.911,0.243c-6.486,0.023-12.924-0.081-19.288-0.114c-6.357-0.05-12.614-0.099-18.669-0.146
      c-6.054-0.049-11.907-0.096-17.457-0.141c-5.544-0.113-10.787-0.22-15.625-0.318c-19.355-0.394-32.259-0.657-32.259-0.657
      c-1.237-0.025-2.219-1.048-2.194-2.286S157.46,229.099,158.697,229.124z"/>

    <path fill="#FFFFFF" d="M64.931,211.05c0,0-2.57,0.309-7.068,0.85c-4.497,0.516-10.914,1.353-18.573,2.449
      c-3.826,0.558-7.966,1.215-12.262,2.11c-2.14,0.453-4.339,0.966-6.428,1.659c-0.518,0.174-1.031,0.36-1.499,0.568
      c-0.478,0.199-0.914,0.434-1.189,0.632c-0.048,0.043-0.152,0.102-0.141,0.117c-0.016,0.02-0.053,0.052,0.014-0.018
      c0.029-0.037,0-0.03,0.055-0.113c0.04-0.072,0.063-0.157,0.065-0.239c-0.003,0.026,0.025-0.556,0.015-0.278l0.002,0.056
      l0.005,0.113c0,0.033,0.003,0.036,0.006-0.029c0.002-0.043,0.001-0.088-0.004-0.132c-0.009-0.088-0.03-0.176-0.062-0.257
      c-0.046-0.102-0.049-0.112-0.053-0.129c-0.007-0.02-0.017-0.038-0.029-0.056c-0.038-0.044-0.026-0.045-0.026-0.045
      c-0.022-0.016,0.035,0.022,0.073,0.053c0.102,0.074,0.282,0.177,0.478,0.276c0.841,0.405,1.959,0.747,3.079,1.036
      c1.13,0.291,2.308,0.54,3.503,0.766c2.393,0.45,4.863,0.812,7.359,1.156c4.998,0.67,10.122,1.19,15.255,1.641
      c5.132,0.47,10.277,0.879,15.346,1.234c5.073,0.339,10.065,0.673,14.897,0.996c9.67,0.585,18.7,1.161,26.446,1.551
      c7.746,0.428,14.202,0.785,18.72,1.035c4.519,0.265,7.102,0.416,7.102,0.416c1.116,0.065,1.967,1.023,1.902,2.139
      c-0.063,1.078-0.959,1.909-2.026,1.905l-0.02,0c0,0-2.592-0.014-7.125-0.109c-4.532-0.125-11.012-0.219-18.779-0.554
      c-7.767-0.337-16.834-0.693-26.54-1.33c-4.852-0.322-9.868-0.647-14.96-1.086c-5.092-0.427-10.265-0.899-15.436-1.453
      c-5.169-0.577-10.336-1.223-15.424-2.027c-2.545-0.401-5.067-0.858-7.566-1.418c-1.25-0.28-2.494-0.586-3.739-0.952
      c-1.25-0.377-2.482-0.766-3.81-1.456c-0.338-0.187-0.683-0.39-1.059-0.685c-0.194-0.163-0.377-0.308-0.59-0.56
      c-0.1-0.115-0.196-0.22-0.304-0.399l-0.147-0.248c-0.045-0.081-0.089-0.153-0.151-0.33c-0.055-0.152-0.099-0.312-0.13-0.471
      l-0.038-0.239c-0.012-0.101-0.012-0.14-0.012-0.14l-0.001-0.113l-0.001-0.056c-0.014,0.24,0.016-0.379,0.028-0.388
      c0.046-0.226,0.112-0.454,0.195-0.67c0.085-0.233,0.176-0.333,0.276-0.5c0.212-0.336,0.402-0.502,0.6-0.691
      c0.211-0.21,0.372-0.298,0.56-0.437c0.712-0.468,1.351-0.754,1.972-0.983c0.625-0.24,1.227-0.425,1.825-0.595
      c2.384-0.664,4.669-1.075,6.9-1.438c4.457-0.707,8.66-1.167,12.542-1.545c7.762-0.757,14.241-1.041,18.771-1.295
      c2.264-0.124,4.05-0.173,5.262-0.221c1.214-0.043,1.861-0.066,1.861-0.066c0.276-0.01,0.508,0.206,0.518,0.482
      C65.381,210.796,65.186,211.018,64.931,211.05z"/>
</g>

</svg>
