<?xml version="1.0" encoding="utf-8"?>
<!-- Generator: Adobe Illustrator 17.1.0, SVG Export Plug-In . SVG Version: 6.00 Build 0)  -->
<!DOCTYPE svg PUBLIC "-//W3C//DTD SVG 1.0//EN" "http://www.w3.org/TR/2001/REC-SVG-20010904/DTD/svg10.dtd">
<svg version="1.0" id="entire-thing" xmlns="http://www.w3.org/2000/svg" xmlns:xlink="http://www.w3.org/1999/xlink" x="0px"
	 y="0px" viewBox="0 0 800 640" enable-background="new 0 0 800 640" xml:space="preserve" preserveAspectRatio="xMidYMin meet">
<g id="dude">
	<g id="BOAT">
		<polygon fill="#48868C" points="105,509 298,431 760,458.59 586,561 		"/>
		<polygon fill="#62B4B7" points="77,421 298,344.209 298,431 105,509 		"/>
		<path fill="#62B4B7" d="M760,458.59c0,0-167-87.171-462-114.381V431c0.567,0.02,236,62.194,398.582,57.43
			C725.553,487.581,737.722,470.972,760,458.59z"/>
		<path fill="#BFEFF0" d="M77,421c0,0,351,206.18,683,37.59c0,0-76.272,156.41-305.136,148.41S105,509,105,509L77,421z"/>
		<g>
			<path opacity="0.2" fill="#48868C" d="M298,431v-86.791l-105,43.395l83-17.475l1.914,9.134c0,0-66.646,26.103-63.914,24.737
				c4-2,66-16.395,66-16.395L226,421l50-10l-30.5,20l41.5-4.395l-33,9.66h23L263.359,445L298,431z"/>
		</g>
	</g>
	<g id="SUIT">
		<path fill="#72BCD8" d="M543.08,202.65c-19.57,25.06-69.91,41.21-92.71,47.48c-3.16,0.86-5.78,1.53-7.73,2.02
			c-2.44,0.6-3.81,0.91-3.81,0.91l-18.47-48.53c0,0,0.44,0.07,1.27,0.19c1.99,0.3,6.22,0.89,11.88,1.52
			c24.39,2.7,75.34,6.01,87.97-11.42c15.65-21.6-27.949-35.957-27.949-35.957l5.228-4.747
			C498.759,154.116,568.75,169.78,543.08,202.65z"/>
		<path opacity="0.1" fill="#2E6768" d="M442.64,252.15c0.377,0.951-9.358-9.859-14.896-22.371
			c-5.182-11.708-6.182-25.146-6.114-25.059c1.99,0.3,9.641,15.338,13.314,22.076c4.892,8.976,15.426,23.334,15.426,23.334
			C447.21,250.99,444.59,251.66,442.64,252.15z"/>
		<path fill="#72BCD8" d="M448.22,430.26l-25.99-0.94C435.7,406.15,434.76,312,434.76,312c-38.82,46.11-93.3,24.34-93.3,24.34
			c23.79,35.37,12.24,126.77,12.24,126.77l-24.76,3.47c0,0,20.35-98.31-7.2-129.31c-23.47-26.39-27.49-96.48-28.13-112.99
			c-0.08-2.08,1.42-3.87,3.48-4.16l107.33-16.96l6.96-1.1c2.44-0.55,7.8-0.16,9.84,2.16c0.14,0.15,0.27,0.32,0.41,0.5
			c4.82,6.34,9.85,27.55,15.32,36.13c2.33,3.65,4.2,7.46,5.69,11.3c0.73,1.84,1.37,3.68,1.92,5.52c5.59,18.29,3.66,35.46,3.66,35.46
			C461.06,338.53,448.22,430.26,448.22,430.26z"/>
		<path fill="#72BCD8" d="M298.458,271.812c0,0-60,9.109-37.145,84.248l-11.897,4.07c0,0-53.536-76.391,46.335-137.754"/>
	</g>
	<g id="HANDS">
		<path fill="#72BCD8" d="M261.313,356.06l8.539-1.323c0.743-0.115,1.5-0.025,2.196,0.261c5.593,2.298,30.829,13.541,29.651,28.848
			C301.434,387.29,281.655,370,281.655,370s10.902,14.111,7.722,17.555s-18.549-13.779-18.549-13.779s6.492,18.814,0.133,21.066
			c-6.36,2.252-3.577-10.334-7.155-15.502s-14.972-10.202-16.694-13.912c-1.722-3.71-0.53-6.36,2.252-7.022
			C252.147,357.745,261.313,356.06,261.313,356.06z"/>
		<path fill="#72BCD8" d="M492.219,159.54c0,0-5.98,15.981-7.67,15.58c-5.26-1.248-4.179-13.735-1.361-27.305
			c4.538-21.849,14.368-39.969,17.434-39.164c4.02,1.055-8.688,31.976-8.688,31.976s19.914-26.457,23.357-23.788
			c3.668,2.843-16.476,25.632-16.907,26.235s20.52-14.438,22.244-12.115c3.997,5.383-19.941,21.46-20.893,22.257
			S492.477,160.315,492.219,159.54z"/>
	</g>
	<g id="HELMET">
		<path fill="#BFEFF0" d="M423.04,211.37c0,0-41.75,48.31-130.8,8.98c0,0,16.67-22.34,19.31-40.59c0.38-2.66,0.47-5.24,0.16-7.65
			l89.25,5.94c0,0,1.48,4.41,4.18,10.14C408.94,196.2,416.638,204.217,423.04,211.37z"/>
		<path opacity="0.1" fill="#2E6768" d="M405.14,188.19c-57.14,14.351-77.651-1.346-93.59-8.43c0.38-2.66,0.47-5.24,0.16-7.65
			l89.25,5.94C400.96,178.05,402.44,182.46,405.14,188.19z"/>
		<path fill="#BFEFF0" d="M377.435,22.843c-21.524,0-100.408,24.602-100.408,102.521c0,43.412,64.933,61.48,86.824,61.48
			c66.417,0,110.829-23.248,110.829-68.982C474.68,65.173,423.445,22.843,377.435,22.843z"/>
		<path fill="#2E6768" d="M376.854,124.858c0,7.986,7.405,37.255,29.297,37.255c22.263,0,43.412-23.632,43.412-41.945
			c0-31.91-19.885-39.331-36.854-39.331C393.159,80.838,376.854,101.988,376.854,124.858z"/>
		<path fill="#2E6768" d="M297.377,118.985c0,4.848,4.1,22.616,16.222,22.616c12.327,0,24.038-17.579,24.038-25.463
			c0-19.371-11.011-23.876-20.407-23.876C306.406,92.262,297.377,105.101,297.377,118.985z"/>
		<path fill="none" stroke="#204149" stroke-width="4" stroke-linecap="round" stroke-miterlimit="10" d="M400.55,80.838
			c0,0,4.407,69.048,5.872,84.914"/>
		<path fill="none" stroke="#204149" stroke-width="4" stroke-linecap="round" stroke-miterlimit="10" d="M429.758,82.389
			c0,0,1.099,57.031,2.564,72.897"/>
		<path fill="none" stroke="#204149" stroke-width="4" stroke-linecap="round" stroke-miterlimit="10" d="M375.99,138.413
			c0,0,61.09-11.331,76.568-15.117"/>
		<path fill="none" stroke="#204149" stroke-width="4" stroke-linecap="round" stroke-miterlimit="10" d="M375.99,113.129
			c0,0,58.763-5.421,74.437-8.286"/>
		<path fill="none" stroke="#204149" stroke-width="2.3772" stroke-linecap="round" stroke-miterlimit="10" d="M325.514,141.888
			c0,0-2.541-42.295-3.386-52.014"/>
		<path fill="none" stroke="#204149" stroke-width="2.3772" stroke-linecap="round" stroke-miterlimit="10" d="M308.673,141.939
			c0,0-0.634-37.934-1.478-47.653"/>
		<path fill="none" stroke="#204149" stroke-width="2.3772" stroke-linecap="round" stroke-miterlimit="10" d="M339.676,106.621
			c0,0-35.226,6.94-44.15,9.26"/>
		<path fill="none" stroke="#204149" stroke-width="2.3772" stroke-linecap="round" stroke-miterlimit="10" d="M339.676,122.109
			c0,0-33.884,3.321-42.922,5.076"/>
		<g>
			<path fill="#2E6768" d="M309.124,203.377c0,0,0.372,0.111,1.07,0.318c0.695,0.212,1.709,0.528,2.996,0.961
				c1.289,0.444,2.844,0.98,4.654,1.768c0.463,0.227,0.941,0.462,1.433,0.704c0.422,0.233,0.856,0.473,1.302,0.72
				c0.898,0.488,1.402,0.697,2.455,0.838c1.019,0.138,2.236,0.248,3.428,0.352c1.225,0.099,2.492,0.202,3.794,0.308
				c1.313,0.126,2.915,0.287,4.489,1.05c-0.034-0.015,0.128,0.056-0.067-0.029l0.03,0.012l0.059,0.024l0.119,0.049l0.23,0.092
				c0.101,0.024,0.2,0.052,0.3,0.085c0.278,0.067,0.584,0.149,0.907,0.208c0.634,0.133,1.315,0.235,1.996,0.336
				c1.371,0.196,2.793,0.349,4.233,0.486c0.72,0.061,1.445,0.122,2.173,0.183l0.54,0.038l0.38,0.027
				c0.113,0.02,0.138,0.014,0.322,0.055c0.151,0.033,0.332,0.077,0.455,0.115l0.305,0.1l0.564,0.203
				c1.42,0.543,2.75,1.052,4.116,1.376c0.679,0.168,1.356,0.273,2.015,0.313c0.345,0.029,0.626,0.011,0.999,0.003l1.151-0.053
				c3.043-0.064,6.087-0.127,9.083-0.19c2.969-0.089,5.91-0.185,8.653-0.534c0.333-0.056,0.677-0.099,0.998-0.163l0.996-0.229
				c0.324-0.086,0.7-0.155,1.089-0.213c0.382-0.062,0.733-0.085,1.096-0.119c1.435-0.091,2.799-0.019,4.094,0.025
				c2.601,0.115,4.929-0.007,7.016-0.84c2.16-0.723,4.14-1.385,5.895-1.972c1.762-0.567,3.299-1.061,4.564-1.468
				c2.543-0.779,3.996-1.224,3.996-1.224s-1.398,0.597-3.846,1.643c-1.23,0.505-2.723,1.119-4.436,1.823
				c-1.72,0.684-3.661,1.455-5.778,2.296c-1.027,0.453-2.295,0.824-3.546,0.988c-1.267,0.18-2.575,0.212-3.887,0.217
				c-1.313,0.005-2.634-0.009-3.931,0.124c-0.317,0.042-0.653,0.078-0.952,0.14c-0.294,0.055-0.601,0.118-0.95,0.224l-1.048,0.283
				c-0.367,0.088-0.726,0.148-1.092,0.223c-2.892,0.481-5.836,0.684-8.834,0.891c-2.977,0.177-6.001,0.356-9.025,0.536l-1.121,0.095
				c-0.384,0.025-0.861,0.066-1.274,0.046c-0.855-0.018-1.686-0.12-2.482-0.284c-1.593-0.313-3.105-0.834-4.494-1.303l-0.496-0.157
				l-0.229-0.066c-0.056-0.013-0.057-0.01-0.086-0.023c0.006-0.012-0.158-0.021-0.228-0.032c0.042,0.003-0.143-0.012,0.086,0.006
				l-0.037-0.001l-0.075-0.002l-0.15-0.003l-0.571-0.018c-0.75-0.034-1.495-0.068-2.237-0.102c-1.481-0.083-2.943-0.184-4.397-0.334
				c-0.73-0.08-1.45-0.16-2.19-0.284c-0.367-0.053-0.739-0.133-1.136-0.217l-0.698-0.193l-0.252-0.09l-0.121-0.044l-0.06-0.022
				l-0.157-0.065c-0.925-0.406-2.047-0.518-3.322-0.584c-1.302-0.062-2.568-0.122-3.792-0.18c-1.256-0.073-2.406-0.138-3.648-0.267
				c-0.613-0.071-1.304-0.169-1.981-0.394c-0.689-0.207-1.256-0.499-1.743-0.739c-0.47-0.242-0.928-0.477-1.374-0.706
				c-0.396-0.179-0.781-0.354-1.154-0.522c-1.604-0.642-3.115-1.12-4.35-1.503c-1.243-0.377-2.231-0.654-2.903-0.837
				c-0.672-0.179-1.031-0.274-1.031-0.274l-0.025-0.007c-1.108-0.294-1.767-1.431-1.473-2.539s1.431-1.767,2.539-1.473
				C309.081,203.364,309.107,203.372,309.124,203.377z"/>
		</g>

			<ellipse transform="matrix(0.9392 0.3433 -0.3433 0.9392 93.4908 -93.1325)" fill="#2E6768" cx="309.768" cy="217.469" rx="2.835" ry="3.672"/>

			<ellipse transform="matrix(0.986 0.1666 -0.1666 0.986 42.8363 -55.6712)" fill="#2E6768" cx="353.307" cy="227.537" rx="2.509" ry="3.095"/>

			<ellipse transform="matrix(0.9703 -0.242 0.242 0.9703 -39.7877 104.7065)" fill="#2E6768" cx="406.422" cy="214.35" rx="2.509" ry="2.917"/>
	</g>
	<g id="BELT">
		<path opacity="0.1" fill="#2E6768" d="M298.889,279.545c0,0,69.022,7.772,141.374-33.863c0,0,4.898,14.939,6.379,20.305
			c0,0-92.446,60.273-139.448,45.284C307.194,311.271,297.606,284.223,298.889,279.545z"/>
		<path fill="#BFEFF0" d="M296.889,274.545c0,0,69.022,7.772,141.374-33.863c0,0,8.142,12.953,9.622,18.319
			c0,0-97.889,61.62-144.89,46.631C302.996,305.633,295.606,279.223,296.889,274.545z"/>

			<line fill="none" stroke="#2E6768" stroke-width="4.1498" stroke-linecap="round" stroke-miterlimit="10" x1="384.864" y1="263.777" x2="394.687" y2="287.21"/>

			<line fill="none" stroke="#2E6768" stroke-width="4.1498" stroke-linecap="round" stroke-miterlimit="10" x1="406.422" y1="255.364" x2="416.245" y2="278.796"/>
	</g>
	<g id="SHOES">
		<path fill="#BFEFF0" d="M418.279,426.652c0,0-8.142,37.009-3.516,52.183c0,0,12.398,0.925,25.906,3.146
			c13.508,2.221,42.19,5.736,53.478,2.221c11.288-3.516,2.406-6.106,2.406-6.106s-39.415-17.394-45.336-17.764
			c0,0-0.727-18.903,2.708-23.316C459.544,429.798,435.488,424.802,418.279,426.652z"/>
		<path fill="#BFEFF0" d="M322.806,461.254c0,0-8.769,40.556-3.787,57.184c0,0,13.352,1.014,27.901,3.447
			c14.548,2.433,45.438,6.286,57.595,2.433c12.157-3.853,2.591-6.692,2.591-6.692s-44.449-19.061-50.826-19.467
			c0,0-0.783-25.098,2.917-29.934C365.247,460.318,341.34,459.227,322.806,461.254z"/>
		<path fill="none" stroke="#2E6768" stroke-width="3" stroke-linecap="round" stroke-linejoin="round" stroke-miterlimit="10" d="
			M470.335,440.039c0,0-33.844-0.862-35.568,2.802c-1.559,3.313,25.423,1.34,30.616,0.931c0.551-0.043,0.857-0.069,0.857-0.069
			s-31.472,0.862-30.395,4.958s32.119,0,32.119,0s-32.119,4.501-29.317,7.316c2.802,2.815,29.101,0,29.101,0"/>

			<path fill="none" stroke="#2E6768" stroke-width="3.3085" stroke-linecap="round" stroke-linejoin="round" stroke-miterlimit="10" d="
			M374.152,473.137c0,0-37.263,2.342-38.801,6.536c-1.391,3.791,28.059-0.999,33.723-1.953c0.601-0.101,0.934-0.159,0.934-0.159
			s-34.49,4.006-32.908,8.401c1.582,4.395,35.284-3.122,35.284-3.122s-34.847,8.067-31.495,10.887
			c3.352,2.82,31.969-2.829,31.969-2.829"/>
	</g>
</g>
</svg>
