<?xml version="1.0" encoding="utf-8"?>
<!-- Generator: Adobe Illustrator 17.1.0, SVG Export Plug-In . SVG Version: 6.00 Build 0)  -->
<!DOCTYPE svg PUBLIC "-//W3C//DTD SVG 1.0//EN" "http://www.w3.org/TR/2001/REC-SVG-20010904/DTD/svg10.dtd">
<svg version="1.0" id="entire-thing" xmlns="http://www.w3.org/2000/svg" xmlns:xlink="http://www.w3.org/1999/xlink" x="0px"
	 y="0px" viewBox="0 0 400 400" enable-background="new 0 0 400 400" xml:space="preserve">
<g id="waves-back">
	<path fill="#bfeff0" d="M580.259,236.043c-0.701,0-1.3,0.432-1.548,1.043c-1.566,1.973-14.467,11.692-30.14,11.692
		s-28.576-9.719-30.141-11.692c-0.248-0.611-0.847-1.043-1.548-1.043s-1.3,0.432-1.548,1.043
		c-1.566,1.973-14.467,11.692-30.14,11.692s-28.574-9.719-30.14-11.692c-0.248-0.611-0.847-1.043-1.548-1.043
		s-1.3,0.432-1.548,1.043c-1.566,1.973-14.469,11.692-30.141,11.692s-28.574-9.719-30.14-11.692
		c-0.248-0.611-0.847-1.043-1.548-1.043s-1.3,0.432-1.548,1.043c-1.566,1.973-14.469,11.692-30.141,11.692
		c-15.673,0-28.574-9.719-30.14-11.692c-0.248-0.611-0.847-1.043-1.548-1.043s-1.3,0.432-1.548,1.043
		c-1.566,1.973-14.467,11.692-30.14,11.692s-28.576-9.719-30.141-11.692c-0.248-0.611-0.847-1.043-1.548-1.043
		s-1.3,0.432-1.548,1.043c-1.566,1.973-14.467,11.692-30.14,11.692s-28.576-9.719-30.141-11.692
		c-0.248-0.611-0.847-1.043-1.548-1.043s-1.3,0.432-1.548,1.043c-1.566,1.973-14.467,11.692-30.14,11.692
		s-28.576-9.719-30.141-11.692c-0.247-0.611-0.846-1.043-1.547-1.043s-1.3,0.432-1.548,1.043
		c-1.565,1.973-14.468,11.692-30.14,11.692c-15.673,0-28.576-9.719-30.141-11.692c-0.248-0.611-0.847-1.043-1.548-1.043
		s-1.3,0.432-1.547,1.043c-1.566,1.973-14.469,11.692-30.141,11.692s-28.575-9.719-30.141-11.692
		c-0.248-0.611-0.847-1.043-1.548-1.043s-1.3,0.432-1.547,1.043c-1.566,1.973-14.469,11.692-30.141,11.692
		s-28.575-9.719-30.141-11.692c-0.248-0.611-0.847-1.043-1.548-1.043s-1.3,0.432-1.547,1.043
		c-1.566,1.973-14.468,11.692-30.141,11.692s-28.576-9.719-30.141-11.692c-0.248-0.611-0.847-1.043-1.548-1.043
		s-1.3,0.432-1.548,1.043c-1.565,1.973-14.468,11.692-30.141,11.692s-28.576-9.719-30.141-11.692
		c-0.248-0.611-0.847-1.043-1.548-1.043c-0.921,0-1.668,0.746-1.668,1.668v38.537c0,0.922,0.747,1.668,1.668,1.668h760.519
		c0.922,0,1.668-0.746,1.668-1.668v-38.537C581.928,236.789,581.182,236.043,580.259,236.043z"/>
	<path fill="#74d4d5" d="M578.711,240.423c-1.566,1.973-14.467,11.692-30.14,11.692s-28.576-9.719-30.141-11.692
		c-0.248-0.611-0.847-1.043-1.548-1.043s-1.3,0.432-1.548,1.043c-1.566,1.973-14.467,11.692-30.14,11.692
		s-28.574-9.719-30.14-11.692c-0.248-0.611-0.847-1.043-1.548-1.043s-1.3,0.432-1.548,1.043
		c-1.566,1.973-14.469,11.692-30.141,11.692s-28.574-9.719-30.14-11.692c-0.248-0.611-0.847-1.043-1.548-1.043
		s-1.3,0.432-1.548,1.043c-1.566,1.973-14.469,11.692-30.141,11.692c-15.673,0-28.574-9.719-30.14-11.692
		c-0.248-0.611-0.847-1.043-1.548-1.043s-1.3,0.432-1.548,1.043c-1.566,1.973-14.467,11.692-30.14,11.692
		s-28.576-9.719-30.141-11.692c-0.248-0.611-0.847-1.043-1.548-1.043s-1.3,0.432-1.548,1.043
		c-1.566,1.973-14.467,11.692-30.14,11.692s-28.576-9.719-30.141-11.692c-0.248-0.611-0.847-1.043-1.548-1.043
		s-1.3,0.432-1.548,1.043c-1.566,1.973-14.467,11.692-30.14,11.692s-28.576-9.719-30.141-11.692
		c-0.247-0.611-0.846-1.043-1.547-1.043s-1.3,0.432-1.548,1.043c-1.565,1.973-14.468,11.692-30.14,11.692
		c-15.673,0-28.576-9.719-30.141-11.692c-0.248-0.611-0.847-1.043-1.548-1.043s-1.3,0.432-1.547,1.043
		c-1.566,1.973-14.469,11.692-30.141,11.692s-28.575-9.719-30.141-11.692c-0.248-0.611-0.847-1.043-1.548-1.043
		s-1.3,0.432-1.547,1.043c-1.566,1.973-14.469,11.692-30.141,11.692s-28.575-9.719-30.141-11.692
		c-0.248-0.611-0.847-1.043-1.548-1.043s-1.3,0.432-1.547,1.043c-1.566,1.973-14.468,11.692-30.141,11.692
		s-28.576-9.719-30.141-11.692c-0.248-0.611-0.847-1.043-1.548-1.043s-1.3,0.432-1.548,1.043
		c-1.565,1.973-14.468,11.692-30.141,11.692s-28.576-9.719-30.141-11.692c-0.248-0.611-4.216-4.375-4.216-4.375v43.537
		c1,0.922,1.747,1.668,2.668,1.668h760.519c0.922,0,1.668-0.746,2.668-1.668v-43.537
		C582.923,236.048,578.959,239.812,578.711,240.423z"/>
</g>
<g id="dude">
	<g id="BOAT">
		<polygon fill="#48868C" points="52.5,289.5 149,250.5 380,264.295 293,315.5 		"/>
		<polygon fill="#62B4B7" points="38.5,245.5 149,207.105 149,250.5 52.5,289.5 		"/>
		<path fill="#62B4B7" d="M380,264.295c0,0-83.5-43.585-231-57.191V250.5c0.283,0.01,118,31.097,199.291,28.715
			C362.776,278.79,368.861,270.486,380,264.295z"/>
		<path fill="#BFEFF0" d="M38.5,245.5c0,0,175.5,103.09,341.5,18.795c0,0-38.136,78.205-152.568,74.205S52.5,289.5,52.5,289.5
			L38.5,245.5z"/>
		<g>
			<path opacity="0.2" fill="#48868C" enable-background="new    " d="M149,250.5v-43.396l-52.5,21.697l41.5-8.738l0.957,4.567
				c0,0-33.323,13.051-31.957,12.368c2-1,33-8.197,33-8.197L113,245.5l25-5l-15.25,10l20.75-2.197l-16.5,4.83h11.5l-6.82,4.367
				L149,250.5z"/>
		</g>
	</g>
	<g id="SUIT">
		<path fill="#72BCD8" d="M271.54,136.325c-9.785,12.53-34.955,20.605-46.355,23.74c-1.58,0.43-2.89,0.765-3.865,1.01
			c-1.22,0.3-1.905,0.455-1.905,0.455l-9.235-24.265c0,0,0.22,0.035,0.635,0.095c0.995,0.15,3.11,0.445,5.94,0.76
			c12.195,1.35,37.67,3.005,43.985-5.71c7.825-10.8-13.975-17.979-13.975-17.979l2.614-2.373
			C249.38,112.058,284.375,119.89,271.54,136.325z"/>
		<path opacity="0.1" fill="#2E6768" enable-background="new    " d="M221.32,161.075c0.189,0.476-4.679-4.929-7.448-11.186
			c-2.591-5.854-3.091-12.573-3.057-12.53c0.995,0.15,4.82,7.669,6.657,11.038c2.446,4.488,7.713,11.667,7.713,11.667
			C223.605,160.495,222.295,160.83,221.32,161.075z"/>
		<path fill="#72BCD8" d="M224.11,250.13l-12.995-0.47c6.735-11.585,6.265-58.66,6.265-58.66c-19.41,23.055-46.65,12.17-46.65,12.17
			c11.895,17.685,6.12,63.385,6.12,63.385l-12.38,1.735c0,0,10.175-49.155-3.6-64.655c-11.735-13.195-13.745-48.24-14.065-56.495
			c-0.04-1.04,0.71-1.935,1.74-2.08l53.665-8.48l3.48-0.55c1.22-0.275,3.9-0.08,4.92,1.08c0.07,0.075,0.135,0.16,0.205,0.25
			c2.41,3.17,4.925,13.775,7.66,18.065c1.165,1.825,2.1,3.73,2.845,5.65c0.365,0.92,0.685,1.84,0.96,2.76
			c2.795,9.145,1.83,17.73,1.83,17.73C230.53,204.265,224.11,250.13,224.11,250.13z"/>
		<path fill="#72BCD8" d="M149.229,170.906c0,0-30,4.555-18.572,42.124l-5.949,2.035c0,0-26.768-38.195,23.167-68.877"/>
	</g>
	<g id="HANDS">
		<path fill="#72BCD8" d="M130.656,213.03l4.27-0.661c0.372-0.057,0.75-0.012,1.098,0.13c2.796,1.149,15.415,6.771,14.826,14.424
			c-0.133,1.722-10.022-6.923-10.022-6.923s5.451,7.055,3.861,8.777s-9.275-6.889-9.275-6.889s3.246,9.407,0.066,10.533
			c-3.18,1.126-1.788-5.167-3.577-7.751s-7.486-5.101-8.347-6.956s-0.265-3.18,1.126-3.511
			C126.074,213.872,130.656,213.03,130.656,213.03z"/>
		<path fill="#72BCD8" d="M246.109,114.77c0,0-2.99,7.991-3.835,7.79c-2.63-0.624-2.089-6.868-0.68-13.652
			c2.269-10.924,7.184-19.985,8.717-19.582c2.01,0.528-4.344,15.988-4.344,15.988s9.957-13.229,11.679-11.894
			c1.834,1.422-8.238,12.816-8.454,13.118s10.26-7.219,11.122-6.058c1.999,2.691-9.971,10.73-10.447,11.129
			S246.238,115.158,246.109,114.77z"/>
	</g>
	<g id="HELMET">
		<path fill="#BFEFF0" d="M211.52,140.685c0,0-20.875,24.155-65.4,4.49c0,0,8.335-11.17,9.655-20.295
			c0.19-1.33,0.235-2.62,0.08-3.825l44.625,2.97c0,0,0.74,2.205,2.09,5.07C204.47,133.1,208.319,137.108,211.52,140.685z"/>
		<path opacity="0.1" fill="#2E6768" enable-background="new    " d="M202.57,129.095c-28.57,7.175-38.826-0.673-46.795-4.215
			c0.19-1.33,0.235-2.62,0.08-3.825l44.625,2.97C200.48,124.025,201.22,126.23,202.57,129.095z"/>
		<path fill="#BFEFF0" d="M188.717,46.422c-10.762,0-50.204,12.301-50.204,51.261c0,21.706,32.467,30.74,43.412,30.74
			c33.208,0,55.415-11.624,55.415-34.491C237.34,67.586,211.723,46.422,188.717,46.422z"/>
		<path fill="#2E6768" d="M188.427,97.429c0,3.993,3.702,18.628,14.648,18.628c11.132,0,21.706-11.816,21.706-20.972
			c0-15.955-9.943-19.666-18.427-19.666C196.579,75.419,188.427,85.994,188.427,97.429z"/>
		<path fill="#2E6768" d="M148.689,94.493c0,2.424,2.05,11.308,8.111,11.308c6.163,0,12.019-8.79,12.019-12.731
			c0-9.686-5.505-11.938-10.204-11.938C153.203,81.131,148.689,87.55,148.689,94.493z"/>
		<path fill="none" stroke="#204149" stroke-width="4" stroke-linecap="round" stroke-miterlimit="10" d="M200.275,75.419
			c0,0,2.204,34.524,2.936,42.457"/>
		<path fill="none" stroke="#204149" stroke-width="4" stroke-linecap="round" stroke-miterlimit="10" d="M214.879,76.194
			c0,0,0.549,28.515,1.282,36.449"/>
		<path fill="none" stroke="#204149" stroke-width="4" stroke-linecap="round" stroke-miterlimit="10" d="M187.995,104.206
			c0,0,30.545-5.666,38.284-7.558"/>
		<path fill="none" stroke="#204149" stroke-width="4" stroke-linecap="round" stroke-miterlimit="10" d="M187.995,91.564
			c0,0,29.382-2.71,37.219-4.143"/>
		<path fill="none" stroke="#204149" stroke-width="2.3772" stroke-linecap="round" stroke-miterlimit="10" d="M162.757,105.944
			c0,0-1.27-21.147-1.693-26.007"/>
		<path fill="none" stroke="#204149" stroke-width="2.3772" stroke-linecap="round" stroke-miterlimit="10" d="M154.337,105.969
			c0,0-0.317-18.967-0.739-23.826"/>
		<path fill="none" stroke="#204149" stroke-width="2.3772" stroke-linecap="round" stroke-miterlimit="10" d="M169.838,88.311
			c0,0-17.613,3.47-22.075,4.63"/>
		<path fill="none" stroke="#204149" stroke-width="2.3772" stroke-linecap="round" stroke-miterlimit="10" d="M169.838,96.055
			c0,0-16.942,1.66-21.461,2.538"/>
		<g>
			<path fill="#2E6768" d="M154.562,136.688c0,0,0.186,0.055,0.535,0.159c0.348,0.106,0.855,0.264,1.498,0.48
				c0.645,0.222,1.422,0.49,2.327,0.884c0.232,0.114,0.471,0.231,0.717,0.352c0.211,0.117,0.428,0.237,0.651,0.36
				c0.449,0.244,0.701,0.349,1.227,0.419c0.51,0.069,1.118,0.124,1.714,0.176c0.613,0.049,1.246,0.101,1.897,0.154
				c0.656,0.063,1.458,0.144,2.245,0.525c-0.017-0.007,0.064,0.028-0.033-0.015l0.015,0.006l0.029,0.012l0.059,0.024l0.115,0.046
				c0.051,0.012,0.1,0.026,0.15,0.043c0.139,0.034,0.292,0.075,0.454,0.104c0.317,0.066,0.658,0.118,0.998,0.168
				c0.686,0.098,1.396,0.174,2.117,0.243c0.36,0.031,0.723,0.061,1.087,0.091l0.27,0.019l0.19,0.013
				c0.057,0.01,0.069,0.007,0.161,0.027c0.076,0.017,0.166,0.038,0.227,0.058l0.152,0.05l0.282,0.102
				c0.71,0.271,1.375,0.526,2.058,0.688c0.339,0.084,0.678,0.136,1.008,0.157c0.173,0.015,0.313,0.006,0.499,0.002l0.576-0.026
				c1.521-0.032,3.044-0.063,4.542-0.095c1.484-0.045,2.955-0.092,4.327-0.267c0.167-0.028,0.339-0.049,0.499-0.081l0.498-0.115
				c0.162-0.043,0.35-0.077,0.544-0.106c0.191-0.031,0.367-0.043,0.548-0.06c0.717-0.046,1.4-0.009,2.047,0.012
				c1.301,0.058,2.464-0.004,3.508-0.42c1.08-0.362,2.07-0.692,2.947-0.986c0.881-0.284,1.65-0.531,2.282-0.734
				c1.271-0.39,1.998-0.612,1.998-0.612s-0.699,0.299-1.923,0.822c-0.615,0.253-1.361,0.56-2.218,0.911
				c-0.86,0.342-1.831,0.728-2.889,1.148c-0.514,0.227-1.148,0.412-1.773,0.494c-0.633,0.09-1.288,0.106-1.943,0.108
				c-0.656,0.003-1.317-0.005-1.965,0.062c-0.158,0.021-0.327,0.039-0.476,0.07c-0.147,0.027-0.301,0.059-0.475,0.112l-0.524,0.142
				c-0.184,0.044-0.363,0.074-0.546,0.112c-1.446,0.241-2.918,0.342-4.417,0.446c-1.488,0.089-3.001,0.178-4.512,0.268l-0.561,0.048
				c-0.192,0.012-0.43,0.033-0.637,0.023c-0.428-0.009-0.843-0.06-1.241-0.142c-0.796-0.157-1.553-0.417-2.247-0.651l-0.248-0.078
				l-0.115-0.033c-0.028-0.007-0.029-0.005-0.043-0.011c0.003-0.006-0.079-0.01-0.114-0.016c0.021,0.002-0.072-0.006,0.043,0.003
				l-0.018-0.001l-0.038-0.001l-0.075-0.002l-0.286-0.009c-0.375-0.017-0.747-0.034-1.118-0.051
				c-0.74-0.041-1.471-0.092-2.199-0.167c-0.365-0.04-0.725-0.08-1.095-0.142c-0.184-0.026-0.37-0.066-0.568-0.108l-0.349-0.096
				l-0.126-0.045l-0.061-0.022l-0.03-0.011l-0.079-0.033c-0.462-0.203-1.023-0.259-1.661-0.292c-0.651-0.031-1.284-0.061-1.896-0.09
				c-0.628-0.036-1.203-0.069-1.824-0.133c-0.307-0.035-0.652-0.085-0.99-0.197c-0.344-0.104-0.628-0.249-0.872-0.369
				c-0.235-0.121-0.464-0.239-0.687-0.353c-0.198-0.09-0.391-0.177-0.577-0.261c-0.802-0.321-1.557-0.56-2.175-0.752
				c-0.622-0.188-1.115-0.327-1.452-0.419c-0.336-0.09-0.516-0.137-0.516-0.137L154,138.687c-0.554-0.147-0.883-0.715-0.736-1.27
				c0.147-0.555,0.715-0.883,1.27-0.737C154.54,136.682,154.553,136.686,154.562,136.688z"/>
		</g>

			<ellipse transform="matrix(-0.9392 -0.3433 0.3433 -0.9392 251.0031 331.8989)" fill="#2E6768" cx="154.88" cy="143.731" rx="1.417" ry="1.836"/>

			<ellipse transform="matrix(-0.986 -0.1666 0.1666 -0.986 326.0282 324.8983)" fill="#2E6768" cx="176.642" cy="148.774" rx="1.254" ry="1.547"/>

			<ellipse transform="matrix(-0.9703 0.242 -0.242 -0.9703 434.8012 230.9229)" fill="#2E6768" cx="203.219" cy="142.163" rx="1.255" ry="1.459"/>
	</g>
	<g id="BELT">
		<path opacity="0.1" fill="#2E6768" enable-background="new    " d="M149.445,174.773c0,0,34.511,3.886,70.687-16.932
			c0,0,2.449,7.469,3.189,10.152c0,0-46.223,30.137-69.724,22.642C153.597,190.635,148.803,177.111,149.445,174.773z"/>
		<path fill="#BFEFF0" d="M148.445,172.273c0,0,34.511,3.886,70.687-16.932c0,0,4.071,6.477,4.811,9.16
			c0,0-48.945,30.81-72.445,23.316C151.498,187.816,147.803,174.611,148.445,172.273z"/>

			<line fill="none" stroke="#2E6768" stroke-width="4.1498" stroke-linecap="round" stroke-miterlimit="10" x1="192.432" y1="166.889" x2="197.344" y2="178.605"/>

			<line fill="none" stroke="#2E6768" stroke-width="4.1498" stroke-linecap="round" stroke-miterlimit="10" x1="203.211" y1="162.682" x2="208.122" y2="174.398"/>
	</g>
	<g id="SHOES">
		<path fill="#BFEFF0" d="M209.139,248.326c0,0-4.071,18.505-1.758,26.092c0,0,6.199,0.462,12.953,1.573s21.095,2.868,26.739,1.111
			c5.644-1.758,1.203-3.053,1.203-3.053s-19.708-8.697-22.668-8.882c0,0-0.363-9.452,1.354-11.658
			C229.772,249.899,217.744,247.401,209.139,248.326z"/>
		<path fill="#BFEFF0" d="M161.403,265.627c0,0-4.385,20.278-1.893,28.592c0,0,6.676,0.507,13.951,1.724
			c7.274,1.216,22.719,3.143,28.798,1.216s1.296-3.346,1.296-3.346s-22.225-9.531-25.413-9.734c0,0-0.391-12.549,1.458-14.967
			C182.624,265.159,170.67,264.613,161.403,265.627z"/>
		<path fill="none" stroke="#2E6768" stroke-width="3" stroke-linecap="round" stroke-linejoin="round" stroke-miterlimit="10" d="
			M235.167,255.02c0,0-16.922-0.431-17.784,1.401c-0.779,1.656,12.712,0.67,15.308,0.465c0.275-0.021,0.428-0.035,0.428-0.035
			s-15.736,0.431-15.197,2.479c0.539,2.048,16.059,0,16.059,0s-16.059,2.251-14.658,3.658s14.551,0,14.551,0"/>

			<path fill="none" stroke="#2E6768" stroke-width="3.3085" stroke-linecap="round" stroke-linejoin="round" stroke-miterlimit="10" d="
			M187.076,271.568c0,0-18.632,1.171-19.4,3.268c-0.695,1.895,14.029-0.499,16.861-0.977c0.301-0.051,0.467-0.079,0.467-0.079
			s-17.245,2.003-16.454,4.201s17.642-1.561,17.642-1.561s-17.424,4.033-15.747,5.443c1.676,1.41,15.984-1.415,15.984-1.415"/>
	</g>
</g>
<g id="waves-front">
	<path fill="#bfeff0" d="M391.678,317.086c-0.248-0.611-0.847-1.043-1.548-1.043s-1.3,0.432-1.548,1.043
		c-1.566,1.973-14.469,11.692-30.141,11.692c-15.673,0-28.574-9.719-30.14-11.692c-0.248-0.611-0.847-1.043-1.548-1.043
		s-1.3,0.432-1.548,1.043c-1.566,1.973-14.467,11.692-30.14,11.692s-28.576-9.719-30.141-11.692
		c-0.248-0.611-0.847-1.043-1.548-1.043s-1.3,0.432-1.548,1.043c-1.566,1.973-14.467,11.692-30.14,11.692
		s-28.576-9.719-30.141-11.692c-0.248-0.611-0.847-1.043-1.548-1.043s-1.3,0.432-1.548,1.043
		c-1.566,1.973-14.467,11.692-30.14,11.692s-28.576-9.719-30.141-11.692c-0.247-0.611-0.846-1.043-1.547-1.043
		s-1.3,0.432-1.548,1.043c-1.565,1.973-14.468,11.692-30.14,11.692c-15.673,0-28.576-9.719-30.141-11.692
		c-0.248-0.611-0.847-1.043-1.548-1.043s-1.3,0.432-1.547,1.043c-1.566,1.973-14.469,11.692-30.141,11.692
		s-28.575-9.719-30.141-11.692c-0.248-0.611-0.847-1.043-1.548-1.043s-1.3,0.432-1.547,1.043l-0.007,39.163
		c0,0.922,0.747,1.668,1.668,1.668h379.693c0.922,0,2-0.746,2-1.668v-39.163H391.678z"/>
	<path fill="#74d4d5" d="M388.582,320.422c-1.566,1.973-14.469,11.692-30.141,11.692c-15.673,0-28.574-9.719-30.14-11.692
		c-0.248-0.611-0.847-1.043-1.548-1.043s-1.3,0.432-1.548,1.043c-1.566,1.973-14.467,11.692-30.14,11.692
		s-28.576-9.719-30.141-11.692c-0.248-0.611-0.847-1.043-1.548-1.043s-1.3,0.432-1.548,1.043
		c-1.566,1.973-14.467,11.692-30.14,11.692s-28.576-9.719-30.141-11.692c-0.248-0.611-0.847-1.043-1.548-1.043
		s-1.3,0.432-1.548,1.043c-1.566,1.973-14.467,11.692-30.14,11.692s-28.576-9.719-30.141-11.692
		c-0.247-0.611-0.846-1.043-1.547-1.043s-1.3,0.432-1.548,1.043c-1.565,1.973-14.468,11.692-30.14,11.692
		c-15.673,0-28.576-9.719-30.141-11.692c-0.248-0.611-0.847-1.043-1.548-1.043s-1.3,0.432-1.547,1.043
		c-1.566,1.973-14.469,11.692-30.141,11.692s-28.575-9.719-30.141-11.692c-0.248-0.611-4.095-5-4.095-5l-0.007,44.163
		c1,0.922,1.747,1.668,2.668,1.668h379.693c0.922,0,2-0.746,3-1.668v-43.163C392.676,316.422,388.83,319.811,388.582,320.422z"/>
</g>
</svg>
