<?xml version="1.0" encoding="utf-8"?>
<!-- Generator: Adobe Illustrator 17.1.0, SVG Export Plug-In . SVG Version: 6.00 Build 0)  -->
<!DOCTYPE svg PUBLIC "-//W3C//DTD SVG 1.1//EN" "http://www.w3.org/Graphics/SVG/1.1/DTD/svg11.dtd">
<svg version="1.1" xmlns="http://www.w3.org/2000/svg" xmlns:xlink="http://www.w3.org/1999/xlink" x="0px" y="0px" viewBox="0 0 22 328" enable-background="new 0 0 22 328" xml:space="preserve">
<g>
  <animateTransform
    attributeType="XML"
    attributeName="transform"
    type="scale"
    begin="0s"
    values="1,.8;1,1.2"
    additive="sum"
    dur="1.4s"
    repeatCount="indefinite" />

    <animate
    attributeType="CSS"
    attributeName="opacity"
    begin="0s"
    values="0;1;0"
    dur=".7s"
    repeatCount="indefinite"
    />
  <g id="STREAM1">
      <animate
      attributeType="CSS"
      attributeName="opacity"
      begin="0.2s"
      values="0.3;1.0;0.3"
      dur="0.4s"
      repeatCount="indefinite"
      />
      <path fill="none" stroke="#FFFFFF" stroke-width="0.8145" stroke-linecap="round" stroke-linejoin="round" stroke-miterlimit="10" d="
      M1,2.457c8.672,0,11.283,6.042,11.283,12.826c0,15.508-3,14.508-3,30.017c0,15.509,3,15.509,3,31.018c0,15.509-3,15.509-3,31.019
      c0,15.507,3,15.507,3,31.014c0,15.507-3,15.507-3,31.015c0,15.509,3,15.509,3,31.019c0,15.51-3,15.51-3,31.019
      c0,15.51,3,15.51,3,31.021c0,15.51-3,15.51-3,31.02c0,15.512,2,15.512,2,31.024"/>
  </g>
  <g id="STREAM2">
      <animate
      attributeType="CSS"
      attributeName="opacity"
      values="0.3;1.0;0.3"
      dur="0.4s"
      repeatCount="indefinite"
      />
      <path fill="none" stroke="#FFFFFF" stroke-width="0.8145" stroke-linecap="round" stroke-linejoin="round" stroke-miterlimit="10" d="
      M1,1c10,0,14.283,6.499,14.283,13.283c0,15.508-2,14.508-2,30.017c0,15.509,2,15.509,2,31.018c0,15.509-2,15.509-2,31.019
      c0,15.507,2,15.507,2,31.014c0,15.507-2,15.507-2,31.015c0,15.509,2,15.509,2,31.019c0,15.51-2,15.51-2,31.019
      c0,15.51,2,15.51,2,31.021c0,15.51-2,15.51-2,31.02c0,15.512,0,15.512,0,31.024"/>
  </g>
</g>
</svg>
